<svg width="24" height="24" viewBox="0 0 24 24" fill="none" xmlns="http://www.w3.org/2000/svg">
<path fill-rule="evenodd" clip-rule="evenodd" d="M3.99995 4.02002C3.55812 4.02002 3.19995 4.37819 3.19995 4.82002V16.79C3.19995 17.2318 3.55812 17.59 3.99995 17.59H9.60995C10.0316 17.59 10.4361 17.7575 10.7343 18.0557C11.0324 18.3539 11.2 18.7583 11.2 19.18C11.2 19.6218 11.5581 19.98 12 19.98C12.4418 19.98 12.8 19.6218 12.8 19.18C12.8 18.7583 12.9675 18.3539 13.2657 18.0557C13.5638 17.7575 13.9683 17.59 14.39 17.59H20C20.4418 17.59 20.8 17.2318 20.8 16.79V4.82002C20.8 4.37819 20.4418 4.02002 20 4.02002H15.19C14.1339 4.02002 13.1209 4.43867 12.373 5.18424C12.2378 5.319 12.1133 5.46246 12 5.61331C11.8866 5.46246 11.7621 5.319 11.6269 5.18424C10.879 4.43867 9.866 4.02001 8.80995 4.02002H3.99995ZM12.8 8.00037C12.8 8.0007 12.8 8.00103 12.8 8.00136V16.4145C13.2796 16.1388 13.8271 15.99 14.39 15.99H19.2V5.62002H15.19C14.5574 5.62002 13.9506 5.87079 13.5026 6.31738C13.0551 6.76347 12.8025 7.36858 12.8 8.00037ZM11.2 8.00126C11.1976 7.36915 10.945 6.76368 10.4973 6.31738C10.0493 5.87079 9.44253 5.62002 8.80995 5.62002H4.79995V15.99H9.60995C10.1728 15.99 10.7203 16.1388 11.2 16.4145V8.00126Z" fill="#252F38"/>
</svg>
