<svg width="24" height="24" viewBox="0 0 24 24" fill="none" xmlns="http://www.w3.org/2000/svg">
<g clip-path="url(#clip0_1_330)">
<path d="M12 2.37012C6.69 2.37012 2.37 6.69012 2.37 12.0001C2.37 17.3101 6.69 21.6301 12 21.6301C17.31 21.6301 21.63 17.3101 21.63 12.0001C21.63 6.69012 17.31 2.37012 12 2.37012ZM19.03 16.4501C18.36 16.1201 17.58 15.8401 16.72 15.6201C16.92 14.6801 17.04 13.6601 17.07 12.6001H20.3C20.2 14.0101 19.75 15.3201 19.03 16.4501ZM3.7 12.6001H6.93C6.96 13.6701 7.08 14.6901 7.28 15.6301C6.42 15.8501 5.64 16.1301 4.97 16.4601C4.24999 15.3301 3.8 14.0201 3.7 12.6101V12.6001ZM4.97 7.55012C5.64 7.88012 6.42 8.16012 7.28 8.38012C7.08 9.32012 6.96 10.3401 6.93 11.4101H3.7C3.8 10.0001 4.24999 8.69012 4.97 7.56012V7.55012ZM11.4 11.4001H8.12C8.15 10.4201 8.27 9.48012 8.45 8.62012C9.37 8.79012 10.35 8.89012 11.39 8.92012V11.4001H11.4ZM11.4 12.6001V15.0701C10.37 15.1001 9.37 15.2001 8.45 15.3701C8.27 14.5101 8.15 13.5801 8.12 12.6001H11.4ZM12.6 12.6001H15.88C15.85 13.5701 15.73 14.5101 15.55 15.3701C14.6 15.2001 13.6 15.1001 12.6 15.0701V12.6001ZM12.6 11.4001V8.92012C13.61 8.89012 14.59 8.79012 15.54 8.62012C15.72 9.49012 15.84 10.4201 15.87 11.4001H12.59H12.6ZM12.6 7.73012V3.73012C13.69 4.11012 14.65 5.52012 15.25 7.46012C14.39 7.61012 13.5 7.70012 12.6 7.72012V7.73012ZM11.4 3.73012V7.73012C10.48 7.70012 9.58 7.62012 8.75 7.47012C9.35 5.52012 10.3 4.12012 11.4 3.73012ZM11.4 16.2701V20.2701C10.3 19.8901 9.35 18.4801 8.75 16.5401C9.58 16.3901 10.48 16.3001 11.4 16.2801V16.2701ZM12.6 20.2701V16.2801C13.5 16.3101 14.39 16.4001 15.25 16.5401C14.65 18.4901 13.7 19.8901 12.6 20.2701ZM17.08 11.4001C17.05 10.3301 16.93 9.32012 16.73 8.38012C17.59 8.16012 18.37 7.88012 19.04 7.55012C19.76 8.68012 20.21 9.99012 20.31 11.4001H17.08ZM18.31 6.57012C17.76 6.82012 17.12 7.03012 16.43 7.21012C16.08 6.03012 15.59 5.02012 15.02 4.24012C16.3 4.74012 17.43 5.55012 18.31 6.57012ZM8.99 4.24012C8.41 5.03012 7.93 6.04012 7.58 7.21012C6.89 7.03012 6.24999 6.82012 5.7 6.57012C6.58 5.55012 7.71 4.74012 8.99 4.24012ZM5.7 17.4301C6.24999 17.1801 6.88 16.9701 7.58 16.7901C7.93 17.9601 8.41999 18.9701 8.99 19.7601C7.71 19.2601 6.58 18.4601 5.7 17.4301ZM15.02 19.7601C15.6 18.9701 16.08 17.9601 16.43 16.7901C17.12 16.9701 17.76 17.1801 18.31 17.4301C17.43 18.4601 16.3 19.2601 15.02 19.7601Z" fill="#252F38"/>
</g>
<defs>
<clipPath id="clip0_1_330">
<rect width="24" height="24" fill="white"/>
</clipPath>
</defs>
</svg>
