<svg width="24" height="24" viewBox="0 0 24 24" fill="none" xmlns="http://www.w3.org/2000/svg">
<mask id="path-1-inside-1_1_531" fill="white">
<path fill-rule="evenodd" clip-rule="evenodd" d="M12.2119 20.2378L12.2119 20.2379L4.81626 12.8423C2.95968 10.9857 2.95968 7.97558 4.81626 6.119C6.67285 4.26242 9.68296 4.26242 11.5395 6.119L12.2119 6.79136L12.8843 6.119C14.7408 4.26242 17.751 4.26242 19.6075 6.119C21.4641 7.97558 21.4641 10.9857 19.6075 12.8423L12.2119 20.2379L12.2119 20.2378Z"/>
</mask>
<path d="M12.2119 20.2378L13.2726 19.1772L12.1973 18.1019L11.1368 19.1918L12.2119 20.2378ZM12.2119 20.2379L11.1512 21.2985L12.2265 22.3738L13.287 21.2839L12.2119 20.2379ZM4.81626 12.8423L5.87692 11.7816L4.81626 12.8423ZM4.81626 6.119L5.87692 7.17966L4.81626 6.119ZM11.5395 6.119L10.4789 7.17966L10.4789 7.17966L11.5395 6.119ZM12.2119 6.79136L11.1512 7.85202L12.2119 8.91268L13.2726 7.85202L12.2119 6.79136ZM12.8843 6.119L11.8236 5.05834L11.8236 5.05834L12.8843 6.119ZM19.6075 6.119L18.5469 7.17966V7.17966L19.6075 6.119ZM19.6075 12.8423L18.5469 11.7816V11.7816L19.6075 12.8423ZM12.2119 20.2379L11.1513 21.2985L12.2119 22.3592L13.2726 21.2985L12.2119 20.2379ZM11.1368 19.1918L11.1368 19.1918L13.287 21.2839L13.287 21.2839L11.1368 19.1918ZM13.2725 19.1772L5.87692 11.7816L3.7556 13.9029L11.1512 21.2985L13.2725 19.1772ZM5.87692 11.7816C4.60613 10.5108 4.60613 8.45046 5.87692 7.17966L3.7556 5.05834C1.31324 7.50071 1.31324 11.4606 3.7556 13.9029L5.87692 11.7816ZM5.87692 7.17966C7.14772 5.90887 9.20809 5.90887 10.4789 7.17966L12.6002 5.05834C10.1578 2.61597 6.19797 2.61597 3.7556 5.05834L5.87692 7.17966ZM10.4789 7.17966L11.1512 7.85202L13.2726 5.7307L12.6002 5.05834L10.4789 7.17966ZM13.2726 7.85202L13.9449 7.17966L11.8236 5.05834L11.1512 5.7307L13.2726 7.85202ZM13.9449 7.17966C15.2157 5.90886 17.2761 5.90886 18.5469 7.17966L20.6682 5.05834C18.2258 2.61597 14.266 2.61597 11.8236 5.05834L13.9449 7.17966ZM18.5469 7.17966C19.8177 8.45045 19.8177 10.5108 18.5469 11.7816L20.6682 13.9029C23.1106 11.4606 23.1106 7.50071 20.6682 5.05834L18.5469 7.17966ZM18.5469 11.7816L11.1513 19.1772L13.2726 21.2985L20.6682 13.9029L18.5469 11.7816ZM13.2726 19.1772L13.2726 19.1772L11.1512 21.2985L11.1513 21.2985L13.2726 19.1772Z" fill="#252F38" mask="url(#path-1-inside-1_1_531)"/>
</svg>
