<svg width="24" height="24" viewBox="0 0 24 24" fill="none" xmlns="http://www.w3.org/2000/svg">
<path fill-rule="evenodd" clip-rule="evenodd" d="M4.92127 7.16659C5.12632 6.79889 5.51914 6.5502 5.97004 6.5502H18C18.4488 6.5502 18.8401 6.79656 19.0459 7.16143L11.98 12.2567L4.92127 7.16659ZM4.77004 9.03016V16.2602C4.77004 16.9229 5.3073 17.4602 5.97004 17.4602H18C18.6628 17.4602 19.2 16.9229 19.2 16.2602V9.02291L12.5618 13.8098C12.4146 13.9601 12.2103 14.0502 11.99 14.0502H11.97C11.7498 14.0502 11.5454 13.9601 11.3983 13.8098L4.77004 9.03016ZM5.97004 4.9502C4.42365 4.9502 3.17004 6.2038 3.17004 7.7502V16.2602C3.17004 17.8066 4.42365 19.0602 5.97004 19.0602H18C19.5464 19.0602 20.8 17.8066 20.8 16.2602V7.7502C20.8 6.2038 19.5464 4.9502 18 4.9502H5.97004Z" fill="#252F38"/>
</svg>
