<svg width="24" height="24" viewBox="0 0 24 24" fill="none" xmlns="http://www.w3.org/2000/svg">
<path fill-rule="evenodd" clip-rule="evenodd" d="M5.80094 3.63991H8.68995C9.00298 3.63991 9.28309 3.83434 9.39258 4.1276L10.5126 7.1276C10.5601 7.25476 10.5721 7.39242 10.5475 7.5259L9.99909 10.5004C10.7158 12.0772 11.9794 13.3415 13.5557 14.0591L16.5064 13.4838C16.6441 13.4569 16.7866 13.4692 16.9176 13.5193L19.9276 14.6693C20.2181 14.7803 20.4099 15.059 20.4099 15.3699V18.151C20.4169 18.4733 20.352 18.7932 20.2198 19.0874C20.0861 19.3849 19.887 19.6485 19.6373 19.8585C19.3877 20.0685 19.0939 20.2195 18.7778 20.3003C18.4618 20.3811 18.1316 20.3896 17.8118 20.3251L17.8002 20.3228L17.8002 20.3227C15.4169 19.8033 11.0677 18.4853 7.915 15.3956C7.90493 15.3857 7.89515 15.3756 7.88565 15.3651C5.5404 12.7921 4.04925 9.55617 3.61684 6.10178C3.5715 5.79325 3.59381 5.4785 3.68228 5.17937C3.77181 4.87667 3.92689 4.5974 4.13651 4.3614C4.34613 4.12539 4.60515 3.93844 4.89517 3.81381C5.18101 3.69099 5.49005 3.63168 5.80094 3.63991ZM5.76533 5.13951C5.66995 5.13638 5.57505 5.15429 5.48737 5.19196C5.39969 5.22964 5.32139 5.28616 5.25801 5.35751C5.19464 5.42886 5.14775 5.51329 5.12069 5.6048C5.09362 5.69632 5.08704 5.79267 5.1014 5.88701L5.10419 5.90717C5.4959 9.05032 6.84972 11.9953 8.97997 14.339C11.8235 17.1162 15.8191 18.355 18.1129 18.8556C18.2101 18.8745 18.3104 18.8716 18.4064 18.847C18.504 18.8221 18.5947 18.7755 18.6717 18.7106C18.7488 18.6458 18.8103 18.5644 18.8516 18.4725C18.8929 18.3807 18.9129 18.2807 18.9102 18.18L18.9099 18.1599V15.8862L16.5828 14.9971L13.6135 15.5761C13.468 15.6044 13.3173 15.589 13.1805 15.5318C11.0786 14.6525 9.40732 12.9812 8.52805 10.8794C8.47184 10.745 8.45597 10.5972 8.48238 10.4539L9.03477 7.45791L8.16939 5.13991H5.78995C5.78174 5.13991 5.77353 5.13978 5.76533 5.13951Z" fill="#252F38"/>
</svg>
