<svg width="24" height="24" viewBox="0 0 24 24" fill="none" xmlns="http://www.w3.org/2000/svg">
<path fill-rule="evenodd" clip-rule="evenodd" d="M12 3.58008C10.3113 3.58008 8.87495 4.67486 8.35652 6.18694C8.34829 6.21903 8.33799 6.25028 8.32577 6.28056C8.21157 6.64397 8.14999 7.03018 8.14999 7.43008C8.14999 9.22009 9.38459 10.7311 11.0536 11.1529C10.7975 8.70005 12.2675 6.30677 14.7199 5.51632C14.8967 5.45934 15.0743 5.41196 15.2521 5.3739C14.5743 4.2982 13.3728 3.58008 12 3.58008ZM16.8951 5.28032C16.0741 3.40069 14.195 2.08008 12 2.08008C9.81294 2.08008 7.93289 3.39825 7.10324 5.27644C5.06177 5.4817 3.22223 6.86809 2.54668 8.94835L2.54645 8.94906C1.87466 11.0247 2.54181 13.2202 4.07509 14.593C3.63043 16.602 4.38425 18.7731 6.15824 20.0662L6.15907 20.0668C7.92641 21.3513 10.2247 21.3966 12.002 20.3574C13.7707 21.3948 16.0707 21.3638 17.8415 20.0664C19.6184 18.78 20.3637 16.6122 19.9251 14.6021C21.4679 13.2331 22.14 11.0322 21.4633 8.94851L21.463 8.94741C20.7809 6.85803 18.9453 5.48113 16.8951 5.28032ZM16.2905 6.75604C16.3431 6.76168 16.3968 6.76176 16.4507 6.75588C18.0462 6.78739 19.5134 7.80954 20.0369 9.41243C20.4597 10.7153 20.1496 12.0842 19.3301 13.067C19.2383 12.9082 19.1375 12.7525 19.0277 12.6006L19.0267 12.5992C17.5165 10.5214 14.7917 9.85844 12.5335 10.8553C12.4185 9.13853 13.4688 7.49556 15.1801 6.94399C15.549 6.82509 15.9224 6.7641 16.2905 6.75604ZM13.6272 18.8803C15.1334 16.8074 14.935 14.0045 13.2817 12.1683C14.8814 11.5375 16.7603 12.033 17.8128 13.4804C19.0613 15.2074 18.682 17.6073 16.9604 18.8525L16.9604 18.8524L16.9565 18.8553C15.8538 19.664 14.459 19.7891 13.2763 19.3161C13.3994 19.1785 13.5166 19.0332 13.6272 18.8803ZM12.4123 18.0005C12.1805 18.3211 11.9083 18.5951 11.6078 18.8207C11.5747 18.8409 11.543 18.8639 11.5131 18.8895C10.2057 19.8094 8.40464 19.8443 7.04141 18.8537C5.92889 18.0426 5.37542 16.7568 5.45819 15.4892C5.629 15.5655 5.80546 15.6336 5.98726 15.693L5.98906 15.6936C8.42466 16.4818 11.0305 15.4338 12.2659 13.287C13.361 14.6068 13.4664 16.5503 12.4133 17.9991L12.4123 18.0005ZM5.45332 13.7726C5.40393 13.7244 5.34739 13.6826 5.28462 13.6491C4.03292 12.6792 3.46091 10.9955 3.97344 9.41133C4.39477 8.11428 5.44829 7.18977 6.67901 6.87144C6.65983 7.05512 6.64999 7.2415 6.64999 7.43008C6.64999 9.99759 8.47144 12.1467 10.895 12.6558C9.98148 14.1171 8.16118 14.8196 6.45173 14.2667C6.08753 14.1477 5.75311 13.9797 5.45332 13.7726Z" fill="#252F38"/>
</svg>
