<svg width="24" height="24" viewBox="0 0 24 24" fill="none" xmlns="http://www.w3.org/2000/svg">
<path fill-rule="evenodd" clip-rule="evenodd" d="M4.48999 9.47023C4.48999 6.71986 6.71961 4.49023 9.46999 4.49023C12.2204 4.49023 14.45 6.71986 14.45 9.47023C14.45 12.2206 12.2204 14.4502 9.46999 14.4502C6.71961 14.4502 4.48999 12.2206 4.48999 9.47023ZM9.46999 2.99023C5.89119 2.99023 2.98999 5.89143 2.98999 9.47023C2.98999 13.049 5.89119 15.9502 9.46999 15.9502C10.9892 15.9502 12.3863 15.4275 13.4912 14.552L19.67 20.7308L20.7307 19.6701L14.5518 13.4913C15.4272 12.3864 15.95 10.9894 15.95 9.47023C15.95 5.89143 13.0488 2.99023 9.46999 2.99023Z" fill="#252F38"/>
</svg>
