<svg width="24" height="24" viewBox="0 0 24 24" fill="none" xmlns="http://www.w3.org/2000/svg">
<g clip-path="url(#clip0_1_540)">
<path d="M8.94001 11.2802C9.53001 11.2802 9.99001 10.8202 9.99001 10.2302C9.99001 9.64018 9.53001 9.18018 8.94001 9.18018C8.35001 9.18018 7.89001 9.64018 7.89001 10.2302C7.89001 10.8102 8.36001 11.2802 8.94001 11.2802Z" fill="#252F38"/>
<path d="M15.05 11.2802C15.64 11.2802 16.1 10.8202 16.1 10.2302C16.1 9.64018 15.64 9.18018 15.05 9.18018C14.46 9.18018 14 9.64018 14 10.2302C14 10.5202 14.11 10.7802 14.31 10.9802C14.51 11.1702 14.77 11.2802 15.04 11.2802H15.05Z" fill="#252F38"/>
<path d="M12 3.91016C7.06004 3.91016 3.04004 7.39016 3.04004 11.6702C3.04004 13.3302 3.63004 14.9102 4.75004 16.2402C4.84004 16.3402 4.93004 16.4402 5.02004 16.5402C5.41004 16.9502 5.61004 17.5102 5.56004 18.0702L5.39004 20.1502C5.38004 20.3202 5.42004 20.4902 5.51004 20.6302C5.62004 20.8102 5.80004 20.9302 6.00004 20.9802C6.06004 20.9902 6.12004 21.0002 6.18004 21.0002C6.32004 21.0002 6.47004 20.9602 6.59004 20.8802L8.78004 19.5402C9.18004 19.3002 9.65004 19.2002 10.11 19.2802C10.28 19.3102 10.46 19.3302 10.63 19.3602C11.07 19.4202 11.53 19.4502 11.99 19.4502C16.93 19.4502 20.95 15.9602 20.95 11.6802C20.95 7.40016 16.94 3.91016 12 3.91016ZM6.16004 15.4602C6.06004 15.3502 5.99004 15.2802 5.96004 15.2402C5.08004 14.1902 4.61004 12.9602 4.61004 11.6802C4.61004 8.26016 7.93004 5.48016 12 5.48016C16.07 5.48016 19.39 8.26016 19.39 11.6802C19.39 15.1002 16.07 17.8802 12 17.8802C11.61 17.8802 11.22 17.8502 10.85 17.8002C10.73 17.7802 10.57 17.7602 10.37 17.7302C9.54004 17.6002 8.69004 17.7702 7.97004 18.2002L7.09004 18.7402L7.13004 18.2102C7.21004 17.2002 6.86004 16.2002 6.15004 15.4602H6.16004Z" fill="#252F38"/>
</g>
<defs>
<clipPath id="clip0_1_540">
<rect width="24" height="24" fill="white"/>
</clipPath>
</defs>
</svg>
