<svg width="24" height="24" viewBox="0 0 24 24" fill="none" xmlns="http://www.w3.org/2000/svg">
<g clip-path="url(#clip0_1_548)">
<path d="M21.86 8.12011C21.25 5.22011 18.4 3.35011 15.49 3.96011C15.27 4.01011 15.09 4.13011 14.98 4.31011C14.87 4.49011 14.83 4.70011 14.88 4.90011C14.92 5.10011 15.05 5.28011 15.22 5.39011C15.39 5.50011 15.61 5.54011 15.81 5.49011C16.39 5.37011 16.99 5.38011 17.56 5.53011C18.54 5.79011 19.37 6.41011 19.88 7.29011C20.39 8.17011 20.54 9.19011 20.28 10.1801C20.23 10.3801 20.26 10.6001 20.36 10.7801C20.46 10.9601 20.64 11.0901 20.84 11.1401C20.91 11.1601 20.97 11.1701 21.04 11.1701C21.18 11.1701 21.31 11.1301 21.44 11.0601C21.62 10.9501 21.75 10.7801 21.8 10.5801C22.01 9.78011 22.03 8.93011 21.86 8.12011Z" fill="#252F38"/>
<path d="M17.12 11.0202L17.01 10.9802L17.04 10.8702C17.23 10.1202 17.13 9.47021 16.76 8.95021C16.07 7.99021 14.66 7.77022 12.79 8.31022L12.62 8.36021V8.18022C12.62 7.51022 12.42 6.97022 12 6.57022C11.59 6.17022 11.04 5.97021 10.37 5.97021C8.83003 5.97021 6.81003 7.03021 4.97003 8.82021C3.08003 10.6602 2.03003 12.6102 2.03003 14.3202C2.03003 17.4302 5.63003 19.7802 10.41 19.7802C15.2 19.7802 19.4 17.0902 19.4 14.0102C19.4 12.6802 18.59 11.6202 17.12 11.0302V11.0202ZM10.9 8.94021C10.82 9.19021 10.74 9.65022 11.16 10.0102C11.39 10.2002 11.63 10.2702 11.96 10.2202C12.11 10.2002 12.25 10.1602 12.39 10.1002C13.83 9.51022 15.16 9.41021 15.49 9.86021C15.62 10.0402 15.59 10.3802 15.39 10.8502C15.26 11.1602 15.18 11.6202 15.55 12.0002C15.74 12.2002 15.84 12.2502 16.19 12.3502C17.23 12.6602 17.83 13.2602 17.83 14.0002C17.83 15.9402 14.59 18.2002 10.41 18.2002C6.65003 18.2002 3.60003 16.4602 3.60003 14.3102C3.60003 13.0502 4.50003 11.4602 6.06003 9.94021C7.09003 8.94021 8.22003 8.18021 9.24003 7.79022C9.69003 7.62022 10.08 7.54022 10.39 7.54022C10.62 7.54022 10.8 7.59022 10.91 7.69022C11.11 7.88022 11.11 8.33021 10.91 8.94021H10.9Z" fill="#252F38"/>
</g>
<defs>
<clipPath id="clip0_1_548">
<rect width="24" height="24" fill="white"/>
</clipPath>
</defs>
</svg>
