<svg width="24" height="24" viewBox="0 0 24 24" fill="none" xmlns="http://www.w3.org/2000/svg">
<path d="M20.8207 8.4001C20.8207 8.4001 20.6449 7.15908 20.1035 6.61416C19.418 5.89697 18.6516 5.89346 18.3 5.85127C15.7828 5.66846 12.0035 5.66846 12.0035 5.66846H11.9965C11.9965 5.66846 8.21719 5.66846 5.7 5.85127C5.34844 5.89346 4.58203 5.89697 3.89648 6.61416C3.35508 7.15908 3.18281 8.4001 3.18281 8.4001C3.18281 8.4001 3 9.85908 3 11.3146V12.6786C3 14.1341 3.1793 15.5931 3.1793 15.5931C3.1793 15.5931 3.35508 16.8341 3.89297 17.379C4.57852 18.0962 5.47852 18.0716 5.8793 18.1489C7.3207 18.286 12 18.3282 12 18.3282C12 18.3282 15.7828 18.3212 18.3 18.1419C18.6516 18.0997 19.418 18.0962 20.1035 17.379C20.6449 16.8341 20.8207 15.5931 20.8207 15.5931C20.8207 15.5931 21 14.1376 21 12.6786V11.3146C21 9.85908 20.8207 8.4001 20.8207 8.4001ZM10.1402 14.3345V9.27549L15.0023 11.8138L10.1402 14.3345Z" fill="#FFFFFF"/>
</svg>
