<svg width="24" height="24" viewBox="0 0 24 24" fill="none" xmlns="http://www.w3.org/2000/svg">
<path fill-rule="evenodd" clip-rule="evenodd" d="M5.44914 7.33398C4.6488 7.33398 4 7.98278 4 8.78311V13.769C4 15.3697 5.2976 16.6673 6.89827 16.6673H13.8842C14.6845 16.6673 15.3333 16.0185 15.3333 15.2182V10.2323C15.3333 8.63158 14.0357 7.33398 12.4351 7.33398H5.44914ZM20 8.64299V15.358C20 15.9028 19.3819 16.2176 18.9412 15.8971L16.8824 14.3998C16.5374 14.1489 16.3333 13.7481 16.3333 13.3215V10.6795C16.3333 10.2529 16.5374 9.85204 16.8824 9.60113L18.9412 8.10384C19.3819 7.78337 20 8.09814 20 8.64299Z" fill="#252F38"/>
</svg>
