<svg width="40" height="41" viewBox="0 0 40 41" fill="none" xmlns="http://www.w3.org/2000/svg">
<g clip-path="url(#clip0_2_655)">
<path d="M20 5.46191C11.7158 5.46191 5 12.1777 5 20.4619C5 27.4963 9.8432 33.3991 16.3766 35.0203V25.0459H13.2836V20.4619H16.3766V18.4867C16.3766 13.3813 18.6872 11.0149 23.6996 11.0149C24.65 11.0149 26.2898 11.2015 26.9606 11.3875V15.5425C26.6066 15.5053 25.9916 15.4867 25.2278 15.4867C22.7684 15.4867 21.818 16.4185 21.818 18.8407V20.4619H26.7176L25.8758 25.0459H21.818V35.3521C29.2454 34.4551 35.0006 28.1311 35.0006 20.4619C35 12.1777 28.2842 5.46191 20 5.46191Z" fill="white"/>
</g>
<defs>
<clipPath id="clip0_2_655">
<rect width="30" height="30" fill="white" transform="translate(5 5.46191)"/>
</clipPath>
</defs>
</svg>
