<svg width="780" height="671" viewBox="0 0 780 671" fill="none" xmlns="http://www.w3.org/2000/svg">
<path d="M754.228 -25.1273L737.777 -8.67608C736.215 -7.11399 736.215 -4.58133 737.777 -3.01923L754.228 13.432C755.79 14.9941 758.323 14.9941 759.885 13.432L776.336 -3.01925C777.899 -4.58135 777.899 -7.114 776.336 -8.6761L759.885 -25.1273C758.323 -26.6894 755.79 -26.6894 754.228 -25.1273Z" fill="white" fill-opacity="0.2"/>
<path d="M673.209 -28.3105L653.545 -8.64679C651.983 -7.08469 651.983 -4.55203 653.545 -2.98993L673.209 16.6738C674.771 18.2359 677.304 18.2359 678.866 16.6738L698.53 -2.98993C700.092 -4.55203 700.092 -7.08469 698.53 -8.64679L678.866 -28.3105C677.304 -29.8726 674.771 -29.8726 673.209 -28.3105Z" fill="white" fill-opacity="0.2"/>
<path d="M592.26 -31.5679L569.355 -8.66241C567.793 -7.10031 567.793 -4.56766 569.355 -3.00556L592.26 19.8999C593.822 21.462 596.355 21.462 597.917 19.8999L620.823 -3.00555C622.385 -4.56765 622.385 -7.10031 620.823 -8.66241L597.917 -31.5679C596.355 -33.13 593.822 -33.13 592.26 -31.5679Z" fill="white" fill-opacity="0.2"/>
<path d="M511.282 -34.7551L485.164 -8.63702C483.602 -7.07492 483.602 -4.54226 485.164 -2.98016L511.282 23.1379C512.844 24.6999 515.377 24.7 516.939 23.1379L543.057 -2.98019C544.619 -4.54228 544.619 -7.07495 543.057 -8.63705L516.939 -34.7551C515.377 -36.3172 512.844 -36.3172 511.282 -34.7551Z" fill="white" fill-opacity="0.2"/>
<path d="M430.304 -37.9813L400.973 -8.65069C399.411 -7.0886 399.411 -4.55594 400.973 -2.99384L430.304 26.3367C431.866 27.8988 434.399 27.8988 435.961 26.3367L465.291 -2.99385C466.854 -4.55594 466.854 -7.0886 465.291 -8.6507L435.961 -37.9813C434.399 -39.5434 431.866 -39.5434 430.304 -37.9813Z" fill="white" fill-opacity="0.2"/>
<path d="M349.285 -41.2269L316.713 -8.6546C315.15 -7.0925 315.15 -4.55984 316.713 -2.99775L349.285 29.5746C350.847 31.1367 353.38 31.1367 354.942 29.5746L387.514 -2.99775C389.076 -4.55985 389.076 -7.09251 387.514 -8.65461L354.942 -41.2269C353.38 -42.789 350.847 -42.789 349.285 -41.2269Z" fill="white" fill-opacity="0.2"/>
<path d="M-55.6464 -56.172L-103.172 -8.64679C-104.734 -7.08469 -104.734 -4.55203 -103.172 -2.98993L-55.6464 44.5352C-54.0843 46.0973 -51.5516 46.0973 -49.9895 44.5352L-2.46436 -2.98993C-0.902264 -4.55203 -0.902264 -7.08469 -2.46436 -8.64679L-49.9895 -56.172C-51.5516 -57.7341 -54.0843 -57.7341 -55.6464 -56.172Z" fill="white" fill-opacity="0.2"/>
<path d="M754.213 58.9316L740.77 72.3747C739.208 73.9368 739.208 76.4695 740.77 78.0316L754.213 91.4747C755.775 93.0368 758.308 93.0368 759.87 91.4747L773.313 78.0316C774.875 76.4695 774.875 73.9368 773.313 72.3747L759.87 58.9316C758.308 57.3695 755.775 57.3695 754.213 58.9316Z" fill="white" fill-opacity="0.2"/>
<path d="M673.235 55.8786L656.784 72.3298C655.222 73.8919 655.222 76.4245 656.784 77.9866L673.235 94.4378C674.797 95.9999 677.33 95.9999 678.892 94.4378L695.343 77.9867C696.905 76.4246 696.905 73.8919 695.343 72.3298L678.892 55.8786C677.33 54.3165 674.797 54.3165 673.235 55.8786Z" fill="white" fill-opacity="0.1"/>
<path d="M511.267 49.436L488.362 72.3415C486.799 73.9036 486.799 76.4362 488.362 77.9983L511.267 100.904C512.829 102.466 515.362 102.466 516.924 100.904L539.829 77.9984C541.391 76.4363 541.392 73.9036 539.829 72.3415L516.924 49.436C515.362 47.8739 512.829 47.8739 511.267 49.436Z" fill="white" fill-opacity="0.2"/>
<path d="M430.289 46.2508L404.171 72.3688C402.609 73.9309 402.609 76.4636 404.171 78.0257L430.289 104.144C431.851 105.706 434.384 105.706 435.946 104.144L462.064 78.0257C463.626 76.4636 463.626 73.9309 462.064 72.3688L435.946 46.2508C434.384 44.6887 431.851 44.6887 430.289 46.2508Z" fill="white" fill-opacity="0.2"/>
<path d="M349.282 42.9933L319.952 72.3239C318.389 73.886 318.389 76.4187 319.952 77.9808L349.282 107.311C350.844 108.873 353.377 108.873 354.939 107.311L384.27 77.9808C385.832 76.4187 385.832 73.886 384.27 72.3239L354.939 42.9933C353.377 41.4312 350.844 41.4312 349.282 42.9933Z" fill="white" fill-opacity="0.2"/>
<path d="M754.269 142.39L743.337 153.322C741.775 154.884 741.775 157.417 743.337 158.979L754.269 169.91C755.831 171.472 758.364 171.472 759.926 169.91L770.857 158.979C772.419 157.417 772.419 154.884 770.857 153.322L759.926 142.39C758.364 140.828 755.831 140.828 754.269 142.39Z" fill="white" fill-opacity="0.1"/>
<path d="M592.242 136.884L575.791 153.336C574.229 154.898 574.229 157.43 575.791 158.992L592.242 175.444C593.804 177.006 596.337 177.006 597.899 175.444L614.35 158.993C615.912 157.43 615.912 154.898 614.35 153.336L597.899 136.884C596.337 135.322 593.804 135.322 592.242 136.884Z" fill="white" fill-opacity="0.2"/>
<path d="M511.264 133.656L491.601 153.32C490.038 154.882 490.038 157.415 491.601 158.977L511.264 178.641C512.826 180.203 515.359 180.203 516.921 178.641L536.585 158.977C538.147 157.415 538.147 154.882 536.585 153.32L516.921 133.656C515.359 132.094 512.826 132.094 511.264 133.656Z" fill="white" fill-opacity="0.2"/>
<path d="M430.274 130.438L407.369 153.343C405.807 154.906 405.807 157.438 407.369 159L430.274 181.906C431.836 183.468 434.369 183.468 435.931 181.906L458.836 159C460.399 157.438 460.399 154.906 458.836 153.343L435.931 130.438C434.369 128.876 431.836 128.876 430.274 130.438Z" fill="white" fill-opacity="0.2"/>
<path d="M349.296 127.212L323.178 153.33C321.616 154.892 321.616 157.425 323.178 158.987L349.296 185.105C350.858 186.667 353.391 186.667 354.953 185.105L381.071 158.987C382.633 157.425 382.633 154.892 381.071 153.33L354.953 127.212C353.391 125.65 350.858 125.65 349.296 127.212Z" fill="white" fill-opacity="0.2"/>
<path d="M268.289 123.999L238.958 153.33C237.396 154.892 237.396 157.425 238.958 158.987L268.289 188.317C269.851 189.879 272.384 189.879 273.946 188.317L303.276 158.987C304.838 157.425 304.838 154.892 303.276 153.33L273.946 123.999C272.384 122.437 269.851 122.437 268.289 123.999Z" fill="white" fill-opacity="0.2"/>
<path d="M673.276 223.355L662.344 234.287C660.782 235.849 660.782 238.382 662.344 239.944L673.276 250.875C674.838 252.437 677.37 252.437 678.933 250.875L689.864 239.944C691.426 238.382 691.426 235.849 689.864 234.287L678.933 223.355C677.37 221.793 674.838 221.793 673.276 223.355Z" fill="white" fill-opacity="0.05"/>
<path d="M430.271 214.658L410.607 234.322C409.045 235.884 409.045 238.417 410.607 239.979L430.271 259.643C431.833 261.205 434.366 261.205 435.928 259.643L455.592 239.979C457.154 238.417 457.154 235.884 455.592 234.322L435.928 214.658C434.366 213.096 431.833 213.096 430.271 214.658Z" fill="white" fill-opacity="0.1"/>
<path d="M349.322 211.403L326.417 234.308C324.855 235.87 324.855 238.403 326.417 239.965L349.322 262.871C350.884 264.433 353.417 264.433 354.979 262.871L377.885 239.965C379.447 238.403 379.447 235.87 377.885 234.308L354.979 211.403C353.417 209.841 350.884 209.841 349.322 211.403Z" fill="white" fill-opacity="0.2"/>
<path d="M268.274 208.188L242.156 234.306C240.594 235.868 240.594 238.401 242.156 239.963L268.274 266.081C269.836 267.643 272.369 267.643 273.931 266.081L300.049 239.963C301.611 238.401 301.611 235.868 300.049 234.306L273.931 208.188C272.369 206.626 269.836 206.626 268.274 208.188Z" fill="white" fill-opacity="0.05"/>
<path d="M187.296 204.96L157.965 234.291C156.403 235.853 156.403 238.385 157.965 239.948L187.296 269.278C188.858 270.84 191.391 270.84 192.953 269.278L222.283 239.948C223.846 238.385 223.846 235.853 222.283 234.291L192.953 204.96C191.391 203.398 188.858 203.398 187.296 204.96Z" fill="white" fill-opacity="0.2"/>
<path d="M754.222 309.939L748.839 315.322C747.277 316.884 747.277 319.417 748.839 320.979L754.222 326.361C755.784 327.923 758.316 327.923 759.879 326.361L765.261 320.979C766.823 319.417 766.823 316.884 765.261 315.322L759.879 309.939C758.316 308.377 755.784 308.377 754.222 309.939Z" fill="white" fill-opacity="0.1"/>
<path d="M268.3 292.377L245.395 315.283C243.833 316.845 243.833 319.378 245.395 320.94L268.3 343.845C269.862 345.407 272.395 345.407 273.957 343.845L296.863 320.94C298.425 319.378 298.425 316.845 296.863 315.283L273.957 292.377C272.395 290.815 269.862 290.815 268.3 292.377Z" fill="white" fill-opacity="0.1"/>
<path d="M187.281 289.19L161.163 315.308C159.601 316.87 159.601 319.403 161.163 320.965L187.281 347.083C188.843 348.645 191.376 348.645 192.938 347.083L219.056 320.965C220.618 319.403 220.618 316.87 219.056 315.308L192.938 289.19C191.376 287.628 188.843 287.628 187.281 289.19Z" fill="white" fill-opacity="0.2"/>
<path d="M106.303 285.964L76.9723 315.295C75.4102 316.857 75.4102 319.389 76.9723 320.951L106.303 350.282C107.865 351.844 110.398 351.844 111.96 350.282L141.29 320.951C142.852 319.389 142.852 316.857 141.29 315.295L111.96 285.964C110.398 284.402 107.865 284.402 106.303 285.964Z" fill="white" fill-opacity="0.1"/>
<path d="M25.3541 282.75L-7.2182 315.322C-8.7803 316.884 -8.7803 319.417 -7.2182 320.979L25.3541 353.551C26.9162 355.113 29.4489 355.113 31.011 353.551L63.5832 320.979C65.1453 319.417 65.1453 316.884 63.5832 315.322L31.0109 282.75C29.4488 281.188 26.9162 281.188 25.3541 282.75Z" fill="white" fill-opacity="0.2"/>
<path d="M592.239 388.387L584.315 396.31C582.753 397.872 582.753 400.405 584.315 401.967L592.239 409.891C593.801 411.453 596.333 411.453 597.895 409.891L605.819 401.967C607.381 400.405 607.381 397.872 605.819 396.31L597.895 388.387C596.333 386.825 593.801 386.825 592.239 388.387Z" fill="white" fill-opacity="0.05"/>
<path d="M187.336 373.354L164.431 396.259C162.869 397.822 162.869 400.354 164.431 401.916L187.336 424.822C188.898 426.384 191.431 426.384 192.993 424.822L215.899 401.916C217.461 400.354 217.461 397.822 215.899 396.259L192.993 373.354C191.431 371.792 188.898 371.792 187.336 373.354Z" fill="white" fill-opacity="0.2"/>
<path d="M106.317 370.169L80.1991 396.287C78.637 397.849 78.637 400.382 80.1991 401.944L106.317 428.062C107.879 429.624 110.412 429.624 111.974 428.062L138.092 401.944C139.654 400.382 139.654 397.849 138.092 396.287L111.974 370.169C110.412 368.607 107.879 368.607 106.317 370.169Z" fill="white" fill-opacity="0.2"/>
<path d="M25.3099 366.966L-4.02064 396.297C-5.58274 397.859 -5.58274 400.391 -4.02064 401.953L25.3099 431.284C26.872 432.846 29.4047 432.846 30.9668 431.284L60.2973 401.953C61.8594 400.391 61.8594 397.859 60.2973 396.297L30.9668 366.966C29.4047 365.404 26.872 365.404 25.3099 366.966Z" fill="white" fill-opacity="0.2"/>
<path d="M673.243 474.169L670.138 477.273C668.576 478.835 668.576 481.368 670.138 482.93L673.243 486.035C674.805 487.597 677.337 487.597 678.9 486.035L682.004 482.93C683.566 481.368 683.566 478.835 682.004 477.273L678.9 474.169C677.337 472.606 674.805 472.606 673.243 474.169Z" fill="white" fill-opacity="0.05"/>
<path d="M187.292 457.615L167.628 477.279C166.066 478.841 166.066 481.374 167.628 482.936L187.292 502.6C188.854 504.162 191.387 504.162 192.949 502.6L212.613 482.936C214.175 481.374 214.175 478.841 212.613 477.279L192.949 457.615C191.387 456.053 188.854 456.053 187.292 457.615Z" fill="white" fill-opacity="0.05"/>
<path d="M25.3654 451.128L-0.752582 477.246C-2.31468 478.808 -2.31468 481.341 -0.752584 482.903L25.3655 509.021C26.9276 510.583 29.4602 510.583 31.0223 509.021L57.1403 482.903C58.7024 481.341 58.7024 478.808 57.1403 477.246L31.0223 451.128C29.4602 449.566 26.9275 449.566 25.3654 451.128Z" fill="white" fill-opacity="0.2"/>
<path d="M268.296 544.814L254.853 558.258C253.291 559.82 253.291 562.352 254.853 563.914L268.296 577.358C269.858 578.92 272.391 578.92 273.953 577.358L287.396 563.914C288.958 562.352 288.958 559.82 287.396 558.258L273.953 544.814C272.391 543.252 269.858 543.252 268.296 544.814Z" fill="white" fill-opacity="0.1"/>
<path d="M187.318 541.804L170.867 558.256C169.305 559.818 169.305 562.35 170.867 563.912L187.318 580.364C188.88 581.926 191.413 581.926 192.975 580.364L209.426 563.912C210.989 562.35 210.989 559.818 209.426 558.256L192.975 541.804C191.413 540.242 188.881 540.242 187.318 541.804Z" fill="white" fill-opacity="0.1"/>
<path d="M106.299 538.574L86.6355 558.238C85.0734 559.8 85.0734 562.333 86.6355 563.895L106.299 583.559C107.861 585.121 110.394 585.121 111.956 583.559L131.62 563.895C133.182 562.333 133.182 559.8 131.62 558.238L111.956 538.574C110.394 537.012 107.861 537.012 106.299 538.574Z" fill="white" fill-opacity="0.2"/>
<path d="M25.3505 535.362L2.44498 558.267C0.882884 559.829 0.882881 562.362 2.44498 563.924L25.3505 586.83C26.9126 588.392 29.4452 588.392 31.0073 586.83L53.9128 563.924C55.4749 562.362 55.4749 559.829 53.9128 558.267L31.0073 535.362C29.4452 533.8 26.9126 533.8 25.3505 535.362Z" fill="white" fill-opacity="0.2"/>
<path d="M349.301 631.299L341.377 639.222C339.815 640.784 339.815 643.317 341.377 644.879L349.301 652.803C350.863 654.365 353.396 654.365 354.958 652.803L362.881 644.879C364.443 643.317 364.443 640.784 362.881 639.222L354.958 631.299C353.396 629.737 350.863 629.737 349.301 631.299Z" fill="white" fill-opacity="0.05"/>
<path d="M268.281 628.346L257.35 639.277C255.788 640.839 255.788 643.372 257.35 644.934L268.281 655.865C269.843 657.427 272.376 657.427 273.938 655.865L284.87 644.934C286.432 643.372 286.432 640.839 284.87 639.277L273.938 628.346C272.376 626.783 269.843 626.783 268.281 628.346Z" fill="white" fill-opacity="0.2"/>
<path d="M106.325 622.81L89.8742 639.261C88.3122 640.824 88.3122 643.356 89.8742 644.918L106.325 661.369C107.888 662.932 110.42 662.932 111.982 661.369L128.434 644.918C129.996 643.356 129.996 640.823 128.434 639.261L111.982 622.81C110.42 621.248 107.888 621.248 106.325 622.81Z" fill="white" fill-opacity="0.1"/>
<path d="M25.3475 619.58L5.68376 639.244C4.12166 640.806 4.12166 643.339 5.68376 644.901L25.3475 664.564C26.9096 666.127 29.4423 666.127 31.0044 664.564L50.6681 644.901C52.2302 643.339 52.2302 640.806 50.6681 639.244L31.0044 619.58C29.4423 618.018 26.9096 618.018 25.3475 619.58Z" fill="white" fill-opacity="0.2"/>
<path fill-rule="evenodd" clip-rule="evenodd" d="M30.9883 -53.2184C29.4262 -54.7805 26.8936 -54.7805 25.3315 -53.2185L-19.2148 -8.67216C-20.7769 -7.11006 -20.7769 -4.5774 -19.2148 -3.0153L17.1483 33.3478C18.7104 34.9099 18.7104 37.4426 17.1483 39.0047L-16.1924 72.3454C-17.7545 73.9075 -17.7545 76.4402 -16.1924 78.0023L20.1416 114.336C21.7036 115.898 21.7036 118.431 20.1416 119.993L-13.1873 153.322C-14.7494 154.884 -14.7494 157.417 -13.1873 158.979L23.0112 195.177C24.5733 196.74 24.5733 199.272 23.0112 200.834L-10.457 234.302C-12.0191 235.865 -12.0191 238.397 -10.457 239.959L25.3279 275.744C26.89 277.306 29.4226 277.306 30.9847 275.744L66.7696 239.959C68.3316 238.397 68.3316 235.865 66.7695 234.302L33.3454 200.878C31.7833 199.316 31.7833 196.784 33.3454 195.221L67.2258 161.341C68.7879 159.779 71.3205 159.779 72.8826 161.341L106.321 194.779C107.883 196.341 110.416 196.341 111.978 194.779L147.762 158.994C149.325 157.432 149.325 154.9 147.762 153.338L114.32 119.895C112.758 118.333 112.758 115.8 114.32 114.238L148.22 80.3382C149.782 78.7761 152.315 78.7761 153.877 80.3382L187.314 113.775C188.876 115.337 191.409 115.337 192.971 113.775L228.756 77.9906C230.318 76.4285 230.318 73.8958 228.756 72.3337L195.312 38.8901C193.75 37.328 193.75 34.7953 195.312 33.2332L229.211 -0.665684C230.773 -2.22778 233.306 -2.22778 234.868 -0.665684L268.307 32.7734C269.869 34.3355 272.402 34.3355 273.964 32.7734L309.749 -3.01141C311.311 -4.57351 311.311 -7.10617 309.749 -8.66826L273.964 -44.4531C272.402 -46.0152 269.869 -46.0152 268.307 -44.4531L234.885 -11.0315C233.323 -9.46944 230.791 -9.46944 229.228 -11.0315L193.015 -47.2451C191.453 -48.8072 188.92 -48.8072 187.358 -47.2451L153.951 -13.8378C152.389 -12.2757 149.856 -12.2757 148.294 -13.8378L111.966 -50.1654C110.404 -51.7275 107.872 -51.7275 106.309 -50.1654L73.0038 -16.8598C71.4417 -15.2977 68.9091 -15.2977 67.347 -16.8598L30.9883 -53.2184ZM67.2414 150.975C68.8035 152.537 71.3362 152.537 72.8983 150.975L104.023 119.851C105.585 118.289 105.585 115.756 104.023 114.194L73.0144 83.1855C71.4523 81.6234 68.9197 81.6234 67.3576 83.1855L36.233 114.31C34.6709 115.872 34.6709 118.405 36.233 119.967L67.2414 150.975ZM72.989 67.1368C71.4269 68.6989 68.8943 68.6989 67.3322 67.1368L39.1858 38.9904C37.6237 37.4283 37.6237 34.8956 39.1858 33.3335L67.302 5.21727C68.8641 3.65518 71.3968 3.65518 72.9589 5.21727L101.105 33.3637C102.667 34.9258 102.667 37.4584 101.105 39.0205L72.989 67.1368ZM148.234 69.9724C149.796 71.5345 152.328 71.5345 153.89 69.9724L185.017 38.846C186.579 37.2839 186.579 34.7512 185.017 33.1891L154.009 2.18161C152.447 0.619514 149.915 0.619511 148.352 2.18161L117.226 33.308C115.664 34.8701 115.664 37.4028 117.226 38.9649L148.234 69.9724ZM235.72 77.9632C234.158 76.4011 234.158 73.8685 235.72 72.3064L268.292 39.7341C269.854 38.172 272.387 38.172 273.949 39.734L306.521 72.3063C308.083 73.8684 308.083 76.4011 306.521 77.9632L273.949 110.535C272.387 112.098 269.854 112.098 268.292 110.535L235.72 77.9632ZM154.726 158.969C153.164 157.407 153.164 154.874 154.726 153.312L187.299 120.74C188.861 119.178 191.393 119.178 192.956 120.74L225.528 153.312C227.09 154.874 227.09 157.407 225.528 158.969L192.956 191.541C191.393 193.103 188.861 193.103 187.299 191.541L154.726 158.969ZM112.004 201.744C110.442 200.182 107.909 200.182 106.347 201.744L73.7747 234.316C72.2126 235.878 72.2126 238.411 73.7747 239.973L106.347 272.545C107.909 274.107 110.442 274.107 112.004 272.545L144.576 239.973C146.138 238.411 146.138 235.878 144.576 234.316L112.004 201.744Z" fill="white" fill-opacity="0.2"/>
</svg>
