<svg width="822" height="496" viewBox="0 0 822 496" fill="none" xmlns="http://www.w3.org/2000/svg">
<path d="M628.785 51.4883C631.873 51.4883 633.796 48.1392 632.24 45.4726L619.657 23.9042L607.027 2.25031C605.484 -0.395542 601.661 -0.395951 600.117 2.24957L587.48 23.9042L574.903 45.4734C573.348 48.14 575.271 51.4883 578.358 51.4883H603.573H628.785Z" fill="white" fill-opacity="0.2"/>
<path d="M675.087 147C678.163 147 680.088 143.673 678.555 141.007L670.503 126.997L662.468 113.029C660.93 110.355 657.071 110.355 655.533 113.03L647.503 126.997L639.447 141.006C637.913 143.673 639.838 147 642.914 147H659H675.087Z" fill="white" fill-opacity="0.2"/>
<path d="M639.26 45.4726C637.704 48.1392 639.627 51.4883 642.715 51.4883H667.927H693.142C696.229 51.4883 698.152 48.14 696.598 45.4734L684.02 23.9042L671.383 2.24957C669.839 -0.395954 666.016 -0.395538 664.473 2.25032L651.843 23.9042L639.26 45.4726Z" fill="white" fill-opacity="0.2"/>
<path d="M607.51 101.144C605.954 103.811 607.877 107.16 610.965 107.16H636.177H661.392C664.479 107.16 666.402 103.812 664.847 101.145L652.27 79.5761L639.633 57.9214C638.089 55.2759 634.266 55.2763 632.723 57.9222L620.093 79.5761L607.51 101.144Z" fill="white" fill-opacity="0.1"/>
<path d="M92.2252 321.291C90.6702 323.957 92.5937 327.306 95.6806 327.306H120.895H146.108C149.195 327.306 151.119 323.957 149.563 321.29L136.98 299.722L124.35 278.068C122.806 275.422 118.983 275.421 117.44 278.067L104.802 299.722L92.2252 321.291Z" fill="white" fill-opacity="0.1"/>
<path d="M156.527 112.579C154.984 109.934 151.161 109.933 149.617 112.579L136.98 134.233L124.403 155.802C122.848 158.469 124.771 161.817 127.858 161.817H153.073H178.285C181.373 161.817 183.296 158.468 181.74 155.802L169.157 134.233L156.527 112.579Z" fill="white" fill-opacity="0.1"/>
<path d="M92.172 112.579C90.6287 109.934 86.806 109.933 85.2621 112.579L72.625 134.233L60.0418 155.802C58.4861 158.468 60.4096 161.817 63.4968 161.817H88.7177H113.931C117.018 161.817 118.941 158.468 117.386 155.802L104.802 134.233L92.172 112.579Z" fill="white" fill-opacity="0.1"/>
<path d="M854.036 327.306C857.123 327.306 859.046 323.957 857.491 321.29L844.907 299.722L832.277 278.068C830.734 275.422 826.911 275.421 825.367 278.067L812.73 299.722L800.153 321.291C798.598 323.957 800.521 327.306 803.608 327.306H828.823H854.036Z" fill="white" fill-opacity="0.1"/>
<path d="M-36.4904 431.618C-38.0461 434.285 -36.1227 437.634 -33.0354 437.634H-7.82257H17.392C20.4789 437.634 22.4024 434.285 20.8475 431.619L8.27016 410.05L-4.36695 388.395C-5.91082 385.75 -9.73361 385.75 -11.2769 388.396L-23.9073 410.05L-36.4904 431.618Z" fill="white" fill-opacity="0.1"/>
<path d="M587.48 520.378L600.117 542.039C601.661 544.685 605.484 544.684 607.027 542.038L619.657 520.378L632.24 498.81C633.796 496.143 631.873 492.794 628.785 492.794H603.573H578.358C575.271 492.794 573.348 496.142 574.903 498.809L587.48 520.378Z" fill="white" fill-opacity="0.05"/>
<path d="M449.642 492.794C446.555 492.794 444.631 496.143 446.187 498.81L458.77 520.378L471.4 542.038C472.944 544.684 476.767 544.685 478.311 542.039L490.948 520.378L503.525 498.809C505.08 496.142 503.156 492.794 500.07 492.794H474.855H449.642Z" fill="white" fill-opacity="0.1"/>
<path d="M-0.858024 492.794C-3.94528 492.794 -5.86876 496.143 -4.31303 498.81L8.27012 520.378L20.9002 542.038C22.4434 544.684 26.2669 544.685 27.8107 542.039L40.4475 520.378L53.0249 498.809C54.5798 496.142 52.6563 492.794 49.5694 492.794H24.3548H-0.858024Z" fill="white" fill-opacity="0.1"/>
<path d="M674.892 437.634C671.805 437.634 669.881 440.983 671.437 443.649L684.02 465.218L696.651 486.872C698.194 489.518 702.017 489.518 703.561 486.872L716.198 465.218L728.775 443.649C730.33 440.982 728.406 437.634 725.32 437.634H700.105H674.892Z" fill="white" fill-opacity="0.05"/>
<path d="M518.46 444.026C520.026 441.36 518.104 438 515.011 438H498.497H481.989C478.896 438 476.974 441.36 478.54 444.026L486.751 458.003L495.049 472.129C496.595 474.761 500.4 474.762 501.947 472.13L510.249 458.003L518.46 444.026Z" fill="white" fill-opacity="0.05"/>
<path d="M260.461 444.026C262.027 441.359 260.105 438 257.012 438H240.5H223.99C220.897 438 218.974 441.36 220.541 444.026L228.753 458.003L237.052 472.13C238.598 474.762 242.403 474.762 243.949 472.131L252.253 458.003L260.461 444.026Z" fill="white" fill-opacity="0.1"/>
<path d="M149.563 443.649C151.119 440.983 149.195 437.634 146.108 437.634H120.895H95.6806C92.5937 437.634 90.6702 440.982 92.2252 443.649L104.802 465.218L117.44 486.872C118.983 489.518 122.806 489.518 124.35 486.872L136.98 465.218L149.563 443.649Z" fill="white" fill-opacity="0.1"/>
<path d="M582.747 401.997L591.05 416.129C592.597 418.761 596.403 418.76 597.948 416.128L606.247 401.997L614.458 388.027C616.025 385.36 614.102 382 611.009 382H594.5H577.989C574.896 382 572.973 385.359 574.54 388.026L582.747 401.997Z" fill="white" fill-opacity="0.05"/>
<path d="M752.053 361.129C753.6 363.761 757.405 363.76 758.951 361.128L767.249 347L775.459 333.026C777.026 330.36 775.103 327 772.01 327H755.503H738.99C735.897 327 733.974 330.36 735.541 333.026L743.751 347L752.053 361.129Z" fill="white" fill-opacity="0.1"/>
<path d="M173.051 361.131C174.598 363.763 178.402 363.763 179.949 361.131L188.253 347L196.461 333.026C198.027 330.359 196.104 327 193.012 327H176.5H159.988C156.896 327 154.973 330.359 156.539 333.026L164.747 347L173.051 361.131Z" fill="white" fill-opacity="0.1"/>
<path d="M31.3194 327.306C28.2322 327.306 26.3087 330.655 27.8644 333.321L40.4476 354.89L53.0777 376.55C54.6209 379.196 58.4444 379.196 59.9882 376.55L72.625 354.89L85.2082 333.321C86.7639 330.655 84.8404 327.306 81.7532 327.306H56.5323H31.3194Z" fill="white" fill-opacity="0.2"/>
<path d="M-33.0354 327.306C-36.1227 327.306 -38.0461 330.655 -36.4904 333.321L-23.9073 354.89L-11.2772 376.55C-9.73397 379.196 -5.91046 379.196 -4.3667 376.55L8.27016 354.89L20.8475 333.321C22.4024 330.654 20.4789 327.306 17.392 327.306H-7.82257H-33.0354Z" fill="white" fill-opacity="0.1"/>
<path d="M53.0236 278.161C54.579 275.494 52.6555 272.146 49.5684 272.146H24.3548H-0.857006C-3.94449 272.146 -5.86793 275.495 -4.31176 278.162L8.27012 299.722L20.9002 321.381C22.4434 324.028 26.2669 324.028 27.8107 321.382L40.4475 299.722L53.0236 278.161Z" fill="white" fill-opacity="0.1"/>
<path d="M237.052 251.129C238.598 253.761 242.403 253.762 243.949 251.13L252.253 237L260.461 223.026C262.027 220.359 260.104 217 257.012 217H240.5H223.99C220.897 217 218.975 220.36 220.541 223.027L228.753 237L237.052 251.129Z" fill="white" fill-opacity="0.1"/>
<path d="M117.439 266.222C118.983 268.868 122.807 268.868 124.35 266.221L136.98 244.562L149.563 222.993C151.119 220.327 149.195 216.978 146.108 216.978H120.895H95.6806C92.5937 216.978 90.6702 220.326 92.2252 222.992L104.802 244.562L117.439 266.222Z" fill="white" fill-opacity="0.2"/>
<path d="M53.0777 266.221C54.6209 268.868 58.4444 268.868 59.9882 266.222L72.625 244.562L85.2082 222.993C86.7639 220.327 84.8404 216.978 81.7532 216.978H56.5323H31.3195C28.2322 216.978 26.3087 220.327 27.8644 222.993L40.4476 244.562L53.0777 266.221Z" fill="white" fill-opacity="0.1"/>
<path d="M-33.0354 216.978C-36.1227 216.978 -38.0461 220.327 -36.4904 222.993L-23.9073 244.562L-11.2772 266.221C-9.73397 268.868 -5.91046 268.868 -4.3667 266.222L8.27016 244.562L20.8475 222.992C22.4024 220.326 20.4789 216.978 17.392 216.978H-7.82257H-33.0354Z" fill="white" fill-opacity="0.2"/>
<path d="M770.988 162C767.895 162 765.973 165.359 767.539 168.026L775.747 182.003L784.051 196.131C785.597 198.762 789.402 198.762 790.948 196.13L799.247 182.003L807.459 168.026C809.026 165.36 807.103 162 804.01 162H787.5H770.988Z" fill="white" fill-opacity="0.1"/>
<path d="M192.215 161.816C189.127 161.816 187.204 165.165 188.76 167.832L201.343 189.401L213.973 211.054C215.516 213.7 219.339 213.701 220.883 211.055L233.52 189.401L246.097 167.831C247.652 165.165 245.729 161.816 242.642 161.816H217.427H192.215Z" fill="white" fill-opacity="0.1"/>
<path d="M256.965 161.816C253.877 161.816 251.954 165.165 253.51 167.832L266.093 189.401L278.723 211.054C280.266 213.7 284.089 213.701 285.633 211.055L298.27 189.401L310.847 167.831C312.402 165.165 310.479 161.816 307.392 161.816H282.177H256.965Z" fill="white" fill-opacity="0.1"/>
<path d="M-0.858026 161.816C-3.94529 161.816 -5.86876 165.165 -4.31303 167.832L8.27012 189.401L20.9005 211.054C22.4438 213.7 26.2666 213.701 27.8104 211.055L40.4475 189.401L53.0249 167.831C54.5798 165.165 52.6563 161.816 49.5694 161.816H24.3548H-0.858026Z" fill="white" fill-opacity="0.2"/>
<path d="M825.367 155.894C826.911 158.54 830.734 158.539 832.277 155.893L844.907 134.233L857.489 112.673C859.045 110.007 857.122 106.657 854.035 106.657H828.823H803.609C800.522 106.657 798.599 110.006 800.154 112.673L812.73 134.233L825.367 155.894Z" fill="white" fill-opacity="0.2"/>
<path d="M739.248 106.657C736.161 106.657 734.237 110.007 735.793 112.673L748.375 134.233L761.012 155.894C762.556 158.54 766.379 158.539 767.922 155.893L780.553 134.233L793.134 112.673C794.691 110.007 792.767 106.657 789.68 106.657H764.468H739.248Z" fill="white" fill-opacity="0.1"/>
<path d="M288.748 106.657C285.66 106.657 283.737 110.007 285.293 112.673L297.875 134.233L310.512 155.894C312.056 158.54 315.879 158.539 317.422 155.893L330.052 134.233L342.634 112.673C344.19 110.007 342.267 106.657 339.18 106.657H313.968H288.748Z" fill="white" fill-opacity="0.2"/>
<path d="M224.393 106.657C221.306 106.657 219.382 110.007 220.938 112.673L233.52 134.233L246.15 155.893C247.694 158.539 251.517 158.54 253.061 155.894L265.698 134.233L278.274 112.673C279.829 110.006 277.906 106.657 274.819 106.657H249.605H224.393Z" fill="white" fill-opacity="0.2"/>
<path d="M7.1941 134.233L19.776 112.673C21.3321 110.007 19.4087 106.657 16.3212 106.657H-7.82257H-8.8906H-38.5587C-39.3547 106.657 -40 107.303 -40 108.099C-40 108.354 -39.9323 108.604 -39.8037 108.825L-24.9833 134.233L-9.42365 160.904C-9.18596 161.311 -8.59693 161.31 -8.3606 160.902L7.1941 134.233Z" fill="white" fill-opacity="0.2"/>
<path d="M771.431 51.4883C768.344 51.4883 766.42 54.8366 767.975 57.5032L780.553 79.0724L793.189 100.733C794.733 103.379 798.557 103.379 800.1 100.732L812.73 79.0724L825.313 57.504C826.869 54.8373 824.945 51.4883 821.858 51.4883H796.645H771.431Z" fill="white" fill-opacity="0.2"/>
<path d="M728.828 100.732C730.371 103.379 734.195 103.379 735.738 100.733L748.375 79.0724L760.958 57.504C762.514 54.8373 760.591 51.4883 757.503 51.4883H732.282H707.07C703.982 51.4883 702.059 54.8373 703.615 57.504L716.198 79.0724L728.828 100.732Z" fill="white" fill-opacity="0.2"/>
<path d="M449.642 51.4883C446.555 51.4883 444.631 54.8373 446.187 57.504L458.77 79.0724L471.4 100.732C472.944 103.379 476.767 103.379 478.311 100.733L490.948 79.0724L503.525 57.5032C505.08 54.8366 503.156 51.4883 500.07 51.4883H474.855H449.642Z" fill="white" fill-opacity="0.2"/>
<path d="M385.285 51.4883C382.199 51.4883 380.275 54.8366 381.83 57.5032L394.407 79.0724L407.045 100.734C408.589 103.38 412.411 103.38 413.955 100.734L426.593 79.0724L439.17 57.5032C440.725 54.8366 438.801 51.4883 435.715 51.4883H410.5H385.285Z" fill="white" fill-opacity="0.1"/>
<path d="M374.813 57.504C376.369 54.8373 374.445 51.4883 371.358 51.4883H346.145H320.931C317.844 51.4883 315.92 54.8366 317.475 57.5032L330.053 79.0724L342.689 100.733C344.233 103.379 348.057 103.379 349.6 100.732L362.23 79.0724L374.813 57.504Z" fill="white" fill-opacity="0.1"/>
<path d="M310.458 57.5039C312.014 54.8373 310.09 51.4883 307.003 51.4883H281.782H256.569C253.482 51.4883 251.559 54.8373 253.114 57.504L265.698 79.0724L278.328 100.732C279.871 103.379 283.694 103.379 285.238 100.733L297.875 79.0724L310.458 57.5039Z" fill="white" fill-opacity="0.2"/>
<path d="M213.973 100.732C215.516 103.379 219.34 103.379 220.883 100.733L233.52 79.0724L246.097 57.5032C247.652 54.8366 245.729 51.4883 242.642 51.4883H217.427H192.215C189.127 51.4883 187.204 54.8373 188.76 57.504L201.343 79.0724L213.973 100.732Z" fill="white" fill-opacity="0.1"/>
<path d="M127.858 51.4883C124.771 51.4883 122.848 54.8366 124.403 57.5032L136.98 79.0724L149.617 100.733C151.16 103.379 154.984 103.379 156.527 100.732L169.157 79.0724L181.74 57.5039C183.296 54.8373 181.373 51.4883 178.285 51.4883H153.073H127.858Z" fill="white" fill-opacity="0.2"/>
<path d="M20.9002 100.732C22.4434 103.379 26.2669 103.379 27.8107 100.733L40.4475 79.0724L53.0249 57.5032C54.5798 54.8366 52.6563 51.4883 49.5694 51.4883H24.3548H-0.858026C-3.94529 51.4883 -5.86876 54.8373 -4.31303 57.504L8.27012 79.0724L20.9002 100.732Z" fill="white" fill-opacity="0.2"/>
<path d="M85.7228 100.732C87.266 103.379 91.0895 103.379 92.6333 100.733L105.27 79.0724L117.847 57.5032C119.402 54.8366 117.479 51.4883 114.392 51.4883H89.1774H63.9646C60.8773 51.4883 58.9539 54.8373 60.5096 57.504L73.0927 79.0724L85.7228 100.732Z" fill="white" fill-opacity="0.1"/>
<path d="M803.609 -3.67188C800.522 -3.67188 798.599 -0.323141 800.154 2.34349L812.73 23.9042L825.367 45.5647C826.911 48.2108 830.734 48.2104 832.277 45.5639L844.907 23.9042L857.489 2.34424C859.045 -0.322384 857.122 -3.67188 854.035 -3.67188H828.823H803.609Z" fill="white" fill-opacity="0.1"/>
<path d="M793.134 2.34423C794.691 -0.322392 792.767 -3.67188 789.68 -3.67188H764.468H739.248C736.161 -3.67188 734.237 -0.32239 735.793 2.34423L748.375 23.9042L761.012 45.5647C762.556 48.2108 766.379 48.2104 767.922 45.5639L780.553 23.9042L793.134 2.34423Z" fill="white" fill-opacity="0.2"/>
<path d="M481.821 -3.67188C478.733 -3.67188 476.81 -0.32239 478.366 2.34423L490.948 23.9042L503.578 45.5639C505.121 48.2104 508.944 48.2108 510.488 45.5647L523.125 23.9042L535.707 2.34423C537.263 -0.322392 535.34 -3.67188 532.252 -3.67188H507.032H481.821Z" fill="white" fill-opacity="0.2"/>
<path d="M471.346 2.34348C472.902 -0.323143 470.978 -3.67188 467.891 -3.67188H442.677H417.466C414.378 -3.67188 412.455 -0.32239 414.011 2.34423L426.593 23.9042L439.223 45.5639C440.766 48.2104 444.59 48.2108 446.133 45.5647L458.77 23.9042L471.346 2.34348Z" fill="white" fill-opacity="0.2"/>
<path d="M310.512 45.5647C312.056 48.2108 315.879 48.2104 317.422 45.5639L330.052 23.9042L342.634 2.34423C344.19 -0.322392 342.267 -3.67188 339.18 -3.67188H313.968H288.748C285.66 -3.67188 283.737 -0.322388 285.293 2.34424L297.875 23.9042L310.512 45.5647Z" fill="white" fill-opacity="0.1"/>
<path d="M181.795 45.5662C183.339 48.2119 187.161 48.2119 188.705 45.5662L201.343 23.9042L213.919 2.34348C215.474 -0.323147 213.551 -3.67188 210.464 -3.67188H185.25H160.036C156.949 -3.67188 155.026 -0.323143 156.581 2.34348L169.157 23.9042L181.795 45.5662Z" fill="white" fill-opacity="0.2"/>
<path d="M117.439 45.5647C118.983 48.2108 122.807 48.2104 124.35 45.5639L136.98 23.9042L149.562 2.34423C151.118 -0.322391 149.195 -3.67188 146.107 -3.67188H120.895H95.6816C92.5945 -3.67188 90.671 -0.323142 92.2264 2.34349L104.802 23.9042L117.439 45.5647Z" fill="white" fill-opacity="0.2"/>
<path d="M53.7216 45.5647C55.2653 48.2108 59.0888 48.2104 60.632 45.5639L73.2621 23.9042L85.844 2.34423C87.4002 -0.322391 85.4767 -3.67188 82.3893 -3.67188H57.1774H31.9639C28.8768 -3.67188 26.9533 -0.323142 28.5087 2.34349L41.0847 23.9042L53.7216 45.5647Z" fill="white" fill-opacity="0.1"/>
<path d="M20.8462 2.34348C22.4016 -0.323148 20.4781 -3.67188 17.391 -3.67188H-7.82257H-33.0344C-36.1219 -3.67188 -38.0453 -0.322388 -36.4891 2.34423L-23.9073 23.9042L-11.2772 45.5639C-9.73398 48.2104 -5.91045 48.2108 -4.3667 45.5647L8.27016 23.9042L20.8462 2.34348Z" fill="white" fill-opacity="0.1"/>
</svg>
