<svg width="822" height="696" viewBox="0 0 822 696" fill="none" xmlns="http://www.w3.org/2000/svg">
<path d="M-2.19392 27.9895C11.9607 27.9895 22.9699 16.2227 22.9699 2.88696C22.9699 -10.4487 11.1744 -23 -2.19392 -23C-15.5622 -23 -27.3577 -12.0177 -27.3577 2.1025C-27.3577 16.2227 -16.3486 27.205 -2.19392 27.205V27.9895Z" fill="white" fill-opacity="0.2"/>
<path d="M54.4247 28.7739C68.7566 28.7739 80.3749 17.1839 80.3749 2.88695C80.3749 -11.41 68.7566 -23 54.4247 -23C40.0928 -23 28.4745 -11.41 28.4745 2.88695C28.4745 17.1839 40.0928 28.7739 54.4247 28.7739Z" fill="white" fill-opacity="0.2"/>
<path d="M111.043 28.7739C125.375 28.7739 136.994 17.1839 136.994 2.88695C136.994 -11.41 125.375 -23 111.043 -23C96.7114 -23 85.0931 -11.41 85.0931 2.88695C85.0931 17.1839 96.7114 28.7739 111.043 28.7739Z" fill="white" fill-opacity="0.2"/>
<path d="M167.662 27.9895C181.817 27.9895 192.826 16.2227 192.826 2.88696C192.826 -10.4487 181.03 -23 167.662 -23C154.294 -23 142.498 -12.0177 142.498 2.1025C142.498 16.2227 154.294 27.205 167.662 27.205V27.9895Z" fill="white" fill-opacity="0.2"/>
<path d="M224.28 27.9895C238.435 27.9895 249.444 16.2227 249.444 2.88696C249.444 -10.4487 237.649 -23 224.28 -23C210.912 -23 199.117 -12.0177 199.117 2.1025C199.117 16.2227 210.126 27.205 224.28 27.205V27.9895Z" fill="white" fill-opacity="0.2"/>
<path d="M280.899 27.9895C295.054 27.9895 306.063 16.2227 306.063 2.88696C306.063 -10.4487 294.267 -23 280.899 -23C267.531 -23 255.735 -12.0177 255.735 2.1025C255.735 16.2227 267.531 27.205 280.899 27.205V27.9895Z" fill="white" fill-opacity="0.2"/>
<path d="M337.518 27.9895C351.672 27.9895 362.682 16.2227 362.682 2.88696C362.682 -10.4487 350.886 -23 337.518 -23C324.149 -23 312.354 -12.0177 312.354 2.1025C312.354 16.2227 324.149 27.205 337.518 27.205V27.9895Z" fill="white" fill-opacity="0.2"/>
<path d="M394.136 27.9895C408.291 27.9895 419.3 16.2227 419.3 2.88696C419.3 -10.4487 407.505 -23 394.136 -23C380.768 -23 368.972 -12.0177 368.972 2.1025C368.972 16.2227 380.768 27.205 394.136 27.205V27.9895Z" fill="white" fill-opacity="0.2"/>
<path d="M450.755 27.2064C464.123 27.2064 475.132 16.2241 475.132 2.88836C475.132 -10.4473 464.123 -21.4297 450.755 -21.4297C437.386 -21.4297 426.377 -10.4473 426.377 2.88836C426.377 16.2241 437.386 27.2064 450.755 27.2064Z" fill="white" fill-opacity="0.2"/>
<path d="M507.373 25.6389C519.955 25.6389 530.178 15.441 530.178 2.88977C530.178 -9.66148 519.955 -19.8594 507.373 -19.8594C494.791 -19.8594 484.569 -9.66148 484.569 2.88977C484.569 15.441 494.791 25.6389 507.373 25.6389Z" fill="white" fill-opacity="0.2"/>
<path d="M563.992 26.4266C576.574 26.4266 587.583 16.2287 587.583 2.89297C587.583 -10.4427 577.36 -20.6406 563.992 -20.6406C550.624 -20.6406 540.401 -10.4427 540.401 2.89297C540.401 16.2287 550.624 26.4266 563.992 26.4266Z" fill="white" fill-opacity="0.2"/>
<path d="M620.611 27.211C633.979 27.211 644.988 16.2287 644.988 2.89297C644.988 -10.4427 633.979 -20.6406 620.611 -20.6406C607.242 -20.6406 596.233 -9.65828 596.233 2.89297C596.233 15.4442 607.242 27.211 620.611 27.211Z" fill="white" fill-opacity="0.2"/>
<path d="M677.229 28.7739C691.384 28.7739 703.179 17.0071 703.179 2.88695C703.179 -11.2332 691.384 -23 677.229 -23C663.075 -23 651.279 -11.2332 651.279 2.88695C651.279 17.0071 663.075 28.7739 677.229 28.7739Z" fill="white" fill-opacity="0.2"/>
<path d="M733.848 24.0714C745.644 24.0714 755.08 14.658 755.08 2.89117C755.08 -8.87562 745.644 -18.2891 733.848 -18.2891C722.052 -18.2891 712.616 -8.87562 712.616 2.89117C712.616 14.658 722.052 24.0714 733.848 24.0714Z" fill="white" fill-opacity="0.2"/>
<path d="M790.466 24.0714C802.262 24.0714 811.698 14.658 811.698 2.89117C811.698 -8.87562 802.262 -18.2891 790.466 -18.2891C778.671 -18.2891 769.234 -8.87562 769.234 2.89117C769.234 14.658 778.671 24.0714 790.466 24.0714Z" fill="white" fill-opacity="0.2"/>
<path d="M-2.19392 84.4667C11.9607 84.4667 22.9699 72.6999 22.9699 59.3642C22.9699 46.0285 11.1744 34.2617 -2.19392 34.2617C-15.5622 34.2617 -27.3577 45.2441 -27.3577 59.3642C-27.3577 73.4844 -16.3486 84.4667 -2.19392 84.4667Z" fill="white" fill-opacity="0.2"/>
<path d="M54.4247 85.2544C68.5793 85.2544 80.3749 73.4876 80.3749 59.3674C80.3749 45.2473 68.5793 33.4805 54.4247 33.4805C40.27 33.4805 28.4745 45.2473 28.4745 59.3674C28.4745 73.4876 40.27 85.2544 54.4247 85.2544Z" fill="white" fill-opacity="0.2"/>
<path d="M111.043 85.2544C125.198 85.2544 136.994 73.4876 136.994 59.3674C136.994 45.2473 125.198 33.4805 111.043 33.4805C96.8887 33.4805 85.0931 45.2473 85.0931 59.3674C85.0931 73.4876 96.8887 85.2544 111.043 85.2544Z" fill="white" fill-opacity="0.2"/>
<path d="M167.662 84.4667C181.817 84.4667 192.826 72.6999 192.826 59.3642C192.826 46.0285 181.817 34.2617 167.662 34.2617C153.507 34.2617 142.498 45.2441 142.498 59.3642C142.498 73.4844 154.294 84.4667 167.662 84.4667Z" fill="white" fill-opacity="0.2"/>
<path d="M224.28 84.4667C238.435 84.4667 249.444 72.6999 249.444 59.3642C249.444 46.0285 237.649 34.2617 224.28 34.2617C210.912 34.2617 199.117 45.2441 199.117 59.3642C199.117 73.4844 210.126 84.4667 224.28 84.4667Z" fill="white" fill-opacity="0.2"/>
<path d="M280.899 84.4667C295.054 84.4667 306.063 72.6999 306.063 59.3642C306.063 46.0285 294.267 34.2617 280.899 34.2617C267.531 34.2617 255.735 45.2441 255.735 59.3642C255.735 73.4844 267.531 84.4667 280.899 84.4667Z" fill="white" fill-opacity="0.1"/>
<path d="M337.518 84.4667C351.672 84.4667 362.682 72.6999 362.682 59.3642C362.682 46.0285 350.886 34.2617 337.518 34.2617C324.149 34.2617 312.354 45.2441 312.354 59.3642C312.354 73.4844 324.149 84.4667 337.518 84.4667Z" fill="white" fill-opacity="0.2"/>
<path d="M394.136 84.4667C408.291 84.4667 419.3 72.6999 419.3 59.3642C419.3 46.0285 407.505 34.2617 394.136 34.2617C380.768 34.2617 368.972 45.2441 368.972 59.3642C368.972 73.4844 380.768 84.4667 394.136 84.4667Z" fill="white" fill-opacity="0.2"/>
<path d="M450.755 83.6908C464.123 83.6908 475.132 72.7084 475.132 59.3727C475.132 46.037 464.123 35.0547 450.755 35.0547C437.386 35.0547 426.377 46.037 426.377 59.3727C426.377 72.7084 437.386 83.6908 450.755 83.6908Z" fill="white" fill-opacity="0.2"/>
<path d="M507.373 82.1155C519.955 82.1155 530.178 71.9176 530.178 59.3663C530.178 46.8151 519.955 36.6172 507.373 36.6172C494.791 36.6172 484.569 46.8151 484.569 59.3663C484.569 71.9176 494.791 82.1155 507.373 82.1155Z" fill="white" fill-opacity="0.2"/>
<path d="M563.992 82.9031C576.574 82.9031 587.583 72.7052 587.583 59.3695C587.583 46.0338 577.36 35.8359 563.992 35.8359C550.624 35.8359 540.401 46.0338 540.401 59.3695C540.401 72.7052 550.624 82.9031 563.992 82.9031Z" fill="white" fill-opacity="0.1"/>
<path d="M620.611 83.6876C633.979 83.6876 644.988 72.7052 644.988 60.154C644.988 47.6027 633.979 35.8359 620.611 35.8359C607.242 35.8359 596.233 46.8183 596.233 60.154C596.233 73.4897 607.242 83.6876 620.611 83.6876Z" fill="white" fill-opacity="0.2"/>
<path d="M677.229 85.2544C691.384 85.2544 703.179 73.4876 703.179 59.3674C703.179 45.2473 691.384 33.4805 677.229 33.4805C663.075 33.4805 651.279 45.2473 651.279 59.3674C651.279 73.4876 663.075 85.2544 677.229 85.2544Z" fill="white" fill-opacity="0.1"/>
<path d="M733.848 80.5519C745.644 80.5519 755.08 71.1384 755.08 59.3716C755.08 47.6048 745.644 38.1914 733.848 38.1914C722.052 38.1914 712.616 47.6048 712.616 59.3716C712.616 71.1384 722.052 80.5519 733.848 80.5519Z" fill="white" fill-opacity="0.2"/>
<path d="M790.466 80.5519C802.262 80.5519 811.698 71.1384 811.698 59.3716C811.698 47.6048 802.262 38.1914 790.466 38.1914C778.671 38.1914 769.234 47.6048 769.234 59.3716C769.234 71.1384 778.671 80.5519 790.466 80.5519Z" fill="white" fill-opacity="0.2"/>
<path d="M-2.1941 141.739C11.9606 141.739 23.7561 129.973 23.7561 115.852C23.7561 101.732 11.9606 90.75 -2.1941 90.75C-16.3488 90.75 -28.1443 101.732 -28.1443 115.852C-28.1443 129.973 -16.3488 141.739 -2.1941 141.739Z" fill="white" fill-opacity="0.2"/>
<path d="M54.4246 136.241C65.4337 136.241 74.8702 126.827 74.8702 115.845C74.8702 104.863 65.4337 95.4492 54.4246 95.4492C43.4154 95.4492 33.979 104.863 33.979 115.845C33.979 126.827 43.4154 136.241 54.4246 136.241Z" fill="white" fill-opacity="0.2"/>
<path d="M111.043 141.731C125.198 141.731 136.994 129.964 136.994 115.844C136.994 101.724 125.198 89.957 111.043 89.957C96.8887 89.957 85.0931 101.724 85.0931 115.844C85.0931 129.964 96.8887 141.731 111.043 141.731Z" fill="white" fill-opacity="0.2"/>
<path d="M167.662 141.739C181.816 141.739 193.612 129.973 193.612 115.852C193.612 101.732 181.816 90.75 167.662 90.75C153.507 90.75 141.711 101.732 141.711 115.852C141.711 129.973 153.507 141.739 167.662 141.739Z" fill="white" fill-opacity="0.2"/>
<path d="M224.28 141.739C238.435 141.739 250.231 129.973 250.231 115.852C250.231 101.732 238.435 90.75 224.28 90.75C210.126 90.75 198.33 101.732 198.33 115.852C198.33 129.973 210.126 141.739 224.28 141.739Z" fill="white" fill-opacity="0.2"/>
<path d="M280.899 140.168C294.267 140.168 305.277 129.186 305.277 115.85C305.277 102.514 294.267 92.3164 280.899 92.3164C267.531 92.3164 256.522 103.299 256.522 115.85C256.522 128.401 267.531 140.168 280.899 140.168Z" fill="white" fill-opacity="0.2"/>
<path d="M337.518 140.168C350.886 140.168 361.895 129.186 361.895 115.85C361.895 102.514 350.886 92.3164 337.518 92.3164C324.149 92.3164 313.14 103.299 313.14 115.85C313.14 128.401 324.149 140.168 337.518 140.168Z" fill="white" fill-opacity="0.2"/>
<path d="M394.136 136.241C405.932 136.241 414.582 126.827 414.582 115.845C414.582 104.863 405.145 95.4492 394.136 95.4492C383.127 95.4492 373.691 104.863 373.691 115.845C373.691 126.827 383.127 136.241 394.136 136.241Z" fill="white" fill-opacity="0.2"/>
<path d="M450.755 136.241C462.55 136.241 471.201 126.827 471.201 115.845C471.201 104.863 461.764 95.4492 450.755 95.4492C439.746 95.4492 430.309 104.863 430.309 115.845C430.309 126.827 439.746 136.241 450.755 136.241Z" fill="white" fill-opacity="0.1"/>
<path d="M507.373 140.952C520.742 140.952 532.537 129.969 532.537 115.849C532.537 101.729 521.528 91.5312 507.373 91.5312C493.219 91.5312 482.21 102.514 482.21 115.849C482.21 129.185 493.219 140.952 507.373 140.952Z" fill="white" fill-opacity="0.1"/>
<path d="M563.992 137.816C576.574 137.816 586.01 127.618 586.01 115.851C586.01 104.085 575.787 93.8867 563.992 93.8867C552.196 93.8867 541.974 104.085 541.974 115.851C541.974 127.618 552.196 137.816 563.992 137.816Z" fill="white" fill-opacity="0.05"/>
<path d="M620.611 137.816C633.193 137.816 642.629 127.618 642.629 115.851C642.629 104.085 632.406 93.8867 620.611 93.8867C608.815 93.8867 598.592 104.085 598.592 115.851C598.592 127.618 608.815 137.816 620.611 137.816Z" fill="white" fill-opacity="0.2"/>
<path d="M677.229 141.739C691.384 141.739 703.179 129.973 703.179 115.852C703.179 101.732 691.384 90.75 677.229 90.75C663.075 90.75 651.279 101.732 651.279 115.852C651.279 129.973 663.075 141.739 677.229 141.739Z" fill="white" fill-opacity="0.1"/>
<path d="M733.848 137.028C745.644 137.028 755.08 127.615 755.08 115.848C755.08 104.081 745.644 94.668 733.848 94.668C722.052 94.668 712.616 104.081 712.616 115.848C712.616 127.615 722.052 137.028 733.848 137.028Z" fill="white" fill-opacity="0.1"/>
<path d="M790.467 131.538C799.117 131.538 806.194 124.478 806.194 115.849C806.194 107.22 799.117 100.16 790.467 100.16C781.816 100.16 774.739 107.22 774.739 115.849C774.739 124.478 781.816 131.538 790.467 131.538Z" fill="white" fill-opacity="0.2"/>
<path d="M-2.1941 198.211C11.9606 198.211 23.7561 186.445 23.7561 172.324C23.7561 158.204 11.9606 146.438 -2.1941 146.438C-16.3488 146.438 -28.1443 158.204 -28.1443 172.324C-28.1443 186.445 -16.3488 198.211 -2.1941 198.211Z" fill="white" fill-opacity="0.2"/>
<path d="M54.4246 192.725C65.4337 192.725 74.8702 183.312 74.8702 172.329C74.8702 161.347 65.4337 151.934 54.4246 151.934C43.4154 151.934 33.979 161.347 33.979 172.329C33.979 183.312 43.4154 192.725 54.4246 192.725Z" fill="white" fill-opacity="0.2"/>
<path d="M111.043 198.211C125.198 198.211 136.994 186.445 136.994 172.324C136.994 158.204 125.198 146.438 111.043 146.438C96.8887 146.438 85.0931 158.204 85.0931 172.324C85.0931 186.445 96.8887 198.211 111.043 198.211Z" fill="white" fill-opacity="0.2"/>
<path d="M167.662 198.211C181.816 198.211 193.612 186.445 193.612 172.324C193.612 158.204 181.816 146.438 167.662 146.438C153.507 146.438 141.711 158.204 141.711 172.324C141.711 186.445 153.507 198.211 167.662 198.211Z" fill="white" fill-opacity="0.1"/>
<path d="M224.28 197.435C238.435 197.435 249.444 186.453 249.444 172.333C249.444 158.213 238.435 147.23 224.28 147.23C210.126 147.23 199.117 158.213 199.117 172.333C199.117 186.453 210.126 197.435 224.28 197.435Z" fill="white" fill-opacity="0.1"/>
<path d="M280.899 192.725C291.908 192.725 301.345 183.312 301.345 172.329C301.345 161.347 291.908 151.934 280.899 151.934C269.89 151.934 260.453 161.347 260.453 172.329C260.453 183.312 269.89 192.725 280.899 192.725Z" fill="white" fill-opacity="0.2"/>
<path d="M337.518 191.158C347.74 191.158 356.391 182.529 356.391 172.331C356.391 162.133 347.74 153.504 337.518 153.504C327.295 153.504 318.645 162.133 318.645 172.331C318.645 182.529 327.295 191.158 337.518 191.158Z" fill="white" fill-opacity="0.1"/>
<path d="M394.136 188.799C402.786 188.799 410.65 181.739 410.65 172.325C410.65 162.912 403.573 155.852 394.136 155.852C384.7 155.852 377.622 162.912 377.622 172.325C377.622 181.739 384.7 188.799 394.136 188.799Z" fill="white" fill-opacity="0.2"/>
<path d="M450.755 188.799C459.405 188.799 467.268 181.739 467.268 172.325C467.268 162.912 460.191 155.852 450.755 155.852C441.318 155.852 434.241 162.912 434.241 172.325C434.241 181.739 441.318 188.799 450.755 188.799Z" fill="white" fill-opacity="0.05"/>
<path d="M507.373 191.938C518.383 191.938 527.033 183.309 527.033 172.326C527.033 161.344 518.383 152.715 507.373 152.715C496.364 152.715 487.714 161.344 487.714 172.326C487.714 183.309 496.364 191.938 507.373 191.938Z" fill="white" fill-opacity="0.1"/>
<path d="M563.992 186.447C571.856 186.447 578.147 180.172 578.147 172.327C578.147 164.483 571.856 158.207 563.992 158.207C556.128 158.207 549.838 164.483 549.838 172.327C549.838 180.172 556.128 186.447 563.992 186.447Z" fill="white" fill-opacity="0.2"/>
<path d="M620.611 194.293C633.193 194.293 642.629 184.879 642.629 172.328C642.629 159.777 632.406 150.363 620.611 150.363C608.815 150.363 598.592 160.561 598.592 172.328C598.592 184.095 608.815 194.293 620.611 194.293Z" fill="white" fill-opacity="0.1"/>
<path d="M677.229 190.37C687.452 190.37 695.316 182.525 695.316 172.328C695.316 162.13 687.452 154.285 677.229 154.285C667.006 154.285 659.143 162.13 659.143 172.328C659.143 182.525 667.006 190.37 677.229 190.37Z" fill="white" fill-opacity="0.05"/>
<path d="M733.848 194.293C745.643 194.293 755.866 184.879 755.866 172.328C755.866 159.777 746.43 150.363 733.848 150.363C721.266 150.363 711.83 159.777 711.83 172.328C711.83 184.879 721.266 194.293 733.848 194.293Z" fill="white" fill-opacity="0.1"/>
<path d="M790.466 189.582C799.903 189.582 807.766 181.738 807.766 172.324C807.766 162.911 799.903 155.066 790.466 155.066C781.03 155.066 773.166 162.911 773.166 172.324C773.166 181.738 781.03 189.582 790.466 189.582Z" fill="white" fill-opacity="0.2"/>
<path d="M-2.1941 254.696C11.9606 254.696 23.7561 243.714 23.7561 229.594C23.7561 215.474 11.9606 203.707 -2.1941 203.707C-16.3488 203.707 -28.1443 215.474 -28.1443 229.594C-28.1443 243.714 -16.3488 254.696 -2.1941 254.696Z" fill="white" fill-opacity="0.2"/>
<path d="M54.4247 254.696C68.5793 254.696 80.3749 243.714 80.3749 229.594C80.3749 215.474 68.5793 203.707 54.4247 203.707C40.27 203.707 28.4745 215.474 28.4745 229.594C28.4745 243.714 40.27 254.696 54.4247 254.696Z" fill="white" fill-opacity="0.2"/>
<path d="M111.043 254.696C125.198 254.696 136.994 243.714 136.994 229.594C136.994 215.474 125.198 203.707 111.043 203.707C96.8887 203.707 85.0931 215.474 85.0931 229.594C85.0931 243.714 96.8887 254.696 111.043 254.696Z" fill="white" fill-opacity="0.2"/>
<path d="M167.662 254.696C181.816 254.696 193.612 243.714 193.612 229.594C193.612 215.474 181.816 203.707 167.662 203.707C153.507 203.707 141.711 215.474 141.711 229.594C141.711 243.714 153.507 254.696 167.662 254.696Z" fill="white" fill-opacity="0.2"/>
<path d="M224.28 254.696C238.435 254.696 250.231 243.714 250.231 229.594C250.231 215.474 238.435 203.707 224.28 203.707C210.126 203.707 198.33 215.474 198.33 229.594C198.33 243.714 210.126 254.696 224.28 254.696Z" fill="white" fill-opacity="0.2"/>
<path d="M280.899 244.499C289.549 244.499 296.626 237.439 296.626 228.81C296.626 220.181 289.549 213.121 280.899 213.121C272.249 213.121 265.172 220.181 265.172 228.81C265.172 237.439 272.249 244.499 280.899 244.499Z" fill="white" fill-opacity="0.2"/>
<path d="M337.518 244.499C346.168 244.499 353.245 237.439 353.245 228.81C353.245 220.181 346.168 213.121 337.518 213.121C328.868 213.121 321.79 220.181 321.79 228.81C321.79 237.439 328.868 244.499 337.518 244.499Z" fill="white" fill-opacity="0.2"/>
<path d="M450.755 239.797C456.259 239.797 461.764 235.091 461.764 229.6C461.764 224.108 457.046 218.617 450.755 218.617C444.464 218.617 439.746 223.324 439.746 229.6C439.746 235.875 444.464 239.797 450.755 239.797Z" fill="white" fill-opacity="0.2"/>
<path d="M563.992 251.565C576.574 251.565 586.797 241.367 586.797 228.816C586.797 216.264 576.574 206.066 563.992 206.066C551.41 206.066 541.187 216.264 541.187 228.816C541.187 241.367 551.41 251.565 563.992 251.565Z" fill="white" fill-opacity="0.05"/>
<path d="M677.229 242.148C684.307 242.148 690.598 235.872 690.598 228.812C690.598 221.752 685.093 215.477 677.229 215.477C669.366 215.477 663.861 220.968 663.861 228.812C663.861 236.657 670.152 242.148 677.229 242.148Z" fill="white" fill-opacity="0.2"/>
<path d="M733.848 243.715C742.498 243.715 748.789 236.655 748.789 228.811C748.789 220.966 741.712 213.906 733.848 213.906C725.984 213.906 718.907 220.182 718.907 228.811C718.907 237.44 725.198 243.715 733.848 243.715Z" fill="white" fill-opacity="0.05"/>
<path d="M-2.1941 311.18C11.9606 311.18 23.7561 299.413 23.7561 285.293C23.7561 271.173 11.9606 259.406 -2.1941 259.406C-16.3488 259.406 -28.1443 271.173 -28.1443 285.293C-28.1443 299.413 -16.3488 311.18 -2.1941 311.18Z" fill="white" fill-opacity="0.2"/>
<path d="M54.4246 301.767C63.861 301.767 70.9383 294.707 70.9383 285.294C70.9383 275.88 63.861 268.82 54.4246 268.82C44.9881 268.82 37.9108 275.88 37.9108 285.294C37.9108 294.707 44.9881 301.767 54.4246 301.767Z" fill="white" fill-opacity="0.2"/>
<path d="M111.043 305.69C122.335 305.69 131.489 296.559 131.489 285.294C131.489 274.03 122.335 264.898 111.043 264.898C99.7514 264.898 90.5976 274.03 90.5976 285.294C90.5976 296.559 99.7514 305.69 111.043 305.69Z" fill="white" fill-opacity="0.2"/>
<path d="M167.662 310.389C181.03 310.389 192.826 299.407 192.826 285.287C192.826 271.167 181.817 260.969 167.662 260.969C153.507 260.969 142.498 271.951 142.498 285.287C142.498 298.623 153.507 310.389 167.662 310.389Z" fill="white" fill-opacity="0.2"/>
<path d="M224.281 307.257C236.862 307.257 246.299 297.06 246.299 285.293C246.299 273.526 236.076 263.328 224.281 263.328C212.485 263.328 202.262 273.526 202.262 285.293C202.262 297.06 212.485 307.257 224.281 307.257Z" fill="white" fill-opacity="0.1"/>
<path d="M280.899 311.18C295.054 311.18 306.849 299.413 306.849 285.293C306.849 271.173 295.054 259.406 280.899 259.406C266.744 259.406 254.949 271.173 254.949 285.293C254.949 299.413 266.744 311.18 280.899 311.18Z" fill="white" fill-opacity="0.2"/>
<path d="M337.518 297.841C344.595 297.841 350.1 292.35 350.1 285.29C350.1 278.229 344.595 272.738 337.518 272.738C330.44 272.738 324.936 278.229 324.936 285.29C324.936 292.35 330.44 297.841 337.518 297.841Z" fill="white" fill-opacity="0.05"/>
<path d="M790.467 299.412C798.33 299.412 804.621 293.137 804.621 285.292C804.621 277.448 798.33 271.172 790.467 271.172C782.603 271.172 776.312 277.448 776.312 285.292C776.312 293.137 782.603 299.412 790.467 299.412Z" fill="white" fill-opacity="0.1"/>
<path d="M-2.19392 366.869C11.9607 366.869 22.9699 355.887 22.9699 341.767C22.9699 327.646 11.9607 316.664 -2.19392 316.664C-16.3486 316.664 -27.3577 327.646 -27.3577 341.767C-27.3577 355.887 -16.3486 366.869 -2.19392 366.869Z" fill="white" fill-opacity="0.2"/>
<path d="M54.4247 366.085C67.793 366.085 78.8022 355.103 78.8022 341.767C78.8022 328.432 67.793 317.449 54.4247 317.449C41.0564 317.449 30.0473 328.432 30.0473 341.767C30.0473 355.103 41.0564 366.085 54.4247 366.085Z" fill="white" fill-opacity="0.2"/>
<path d="M111.043 366.085C124.411 366.085 135.42 355.103 135.42 341.767C135.42 328.432 124.411 317.449 111.043 317.449C97.6748 317.449 86.6656 328.432 86.6656 341.767C86.6656 355.103 97.6748 366.085 111.043 366.085Z" fill="white" fill-opacity="0.1"/>
<path d="M167.662 367.657C181.816 367.657 193.612 355.89 193.612 341.77C193.612 327.65 181.816 315.883 167.662 315.883C153.507 315.883 141.711 327.65 141.711 341.77C141.711 355.89 153.507 367.657 167.662 367.657Z" fill="white" fill-opacity="0.2"/>
<path d="M224.28 361.383C235.29 361.383 243.94 352.754 243.94 341.771C243.94 330.789 235.29 322.16 224.28 322.16C213.271 322.16 204.621 330.789 204.621 341.771C204.621 352.754 213.271 361.383 224.28 361.383Z" fill="white" fill-opacity="0.05"/>
<path d="M-2.1939 418.647C9.09789 418.647 18.2517 409.516 18.2517 398.251C18.2517 386.987 9.09789 377.855 -2.1939 377.855C-13.4857 377.855 -22.6395 386.987 -22.6395 398.251C-22.6395 409.516 -13.4857 418.647 -2.1939 418.647Z" fill="white" fill-opacity="0.2"/>
<path d="M54.4245 416.3C64.6473 416.3 72.511 408.455 72.511 398.257C72.511 388.059 64.6473 380.215 54.4245 380.215C44.2017 380.215 36.338 388.059 36.338 398.257C36.338 408.455 44.2017 416.3 54.4245 416.3Z" fill="white" fill-opacity="0.2"/>
<path d="M111.043 416.3C121.266 416.3 129.13 408.455 129.13 398.257C129.13 388.059 121.266 380.215 111.043 380.215C100.82 380.215 92.9566 388.059 92.9566 398.257C92.9566 408.455 100.82 416.3 111.043 416.3Z" fill="white" fill-opacity="0.2"/>
<path d="M167.662 420.215C179.457 420.215 189.68 410.801 189.68 398.25C189.68 385.699 180.244 376.285 167.662 376.285C155.08 376.285 145.643 385.699 145.643 398.25C145.643 410.801 155.08 420.215 167.662 420.215Z" fill="white" fill-opacity="0.1"/>
<path d="M224.28 422.574C237.649 422.574 248.658 411.591 248.658 398.256C248.658 384.92 237.649 373.938 224.28 373.938C210.912 373.938 199.903 384.92 199.903 398.256C199.903 411.591 210.912 422.574 224.28 422.574Z" fill="white" fill-opacity="0.2"/>
<path d="M280.899 413.937C289.549 413.937 296.626 406.877 296.626 398.248C296.626 389.619 289.549 382.559 280.899 382.559C272.249 382.559 265.172 389.619 265.172 398.248C265.172 406.877 272.249 413.937 280.899 413.937Z" fill="white" fill-opacity="0.05"/>
<path d="M-2.19404 466.498C4.09691 466.498 9.60151 461.007 9.60151 454.732C9.60151 448.456 4.09691 442.965 -2.19404 442.965C-8.485 442.965 -13.9896 448.456 -13.9896 454.732C-13.9896 461.007 -8.485 466.498 -2.19404 466.498Z" fill="white" fill-opacity="0.2"/>
<path d="M54.4247 467.286C61.502 467.286 67.0066 461.795 67.0066 454.735C67.0066 447.675 61.502 442.184 54.4247 442.184C47.3474 442.184 41.8428 447.675 41.8428 454.735C41.8428 461.795 47.3474 467.286 54.4247 467.286Z" fill="white" fill-opacity="0.2"/>
<path d="M111.043 474.344C122.052 474.344 130.702 465.715 130.702 454.732C130.702 443.75 122.052 435.121 111.043 435.121C100.034 435.121 91.3838 443.75 91.3838 454.732C91.3838 465.715 100.034 474.344 111.043 474.344Z" fill="white" fill-opacity="0.2"/>
<path d="M167.662 468.854C175.526 468.854 181.817 462.578 181.817 454.733C181.817 446.889 175.526 440.613 167.662 440.613C159.798 440.613 153.507 446.889 153.507 454.733C153.507 462.578 159.798 468.854 167.662 468.854Z" fill="white" fill-opacity="0.2"/>
<path d="M224.28 480.614C238.435 480.614 250.231 468.847 250.231 454.727C250.231 440.607 238.435 428.84 224.28 428.84C210.126 428.84 198.33 440.607 198.33 454.727C198.33 468.847 210.126 480.614 224.28 480.614Z" fill="white" fill-opacity="0.1"/>
<path d="M280.899 470.429C289.549 470.429 296.626 463.369 296.626 454.74C296.626 446.111 289.549 439.051 280.899 439.051C272.249 439.051 265.172 446.111 265.172 454.74C265.172 463.369 272.249 470.429 280.899 470.429Z" fill="white" fill-opacity="0.2"/>
<path d="M-2.19387 522.191C4.09709 522.191 8.81531 517.485 8.81531 511.209C8.81531 504.933 4.09709 500.227 -2.19387 500.227C-8.48482 500.227 -13.203 504.933 -13.203 511.209C-13.203 517.485 -8.48482 522.191 -2.19387 522.191Z" fill="white" fill-opacity="0.2"/>
<path d="M54.4248 526.118C62.2885 526.118 69.3658 519.842 69.3658 511.213C69.3658 502.584 63.0748 496.309 54.4248 496.309C45.7747 496.309 39.4837 502.584 39.4837 511.213C39.4837 519.842 45.7747 526.118 54.4248 526.118Z" fill="white" fill-opacity="0.2"/>
<path d="M111.043 530.04C121.266 530.04 129.916 521.411 129.916 511.214C129.916 501.016 121.266 492.387 111.043 492.387C100.82 492.387 92.1704 501.016 92.1704 511.214C92.1704 521.411 100.82 530.04 111.043 530.04Z" fill="white" fill-opacity="0.1"/>
<path d="M167.662 525.33C175.526 525.33 181.817 519.055 181.817 511.21C181.817 503.365 175.526 497.09 167.662 497.09C159.798 497.09 153.507 503.365 153.507 511.21C153.507 519.055 159.798 525.33 167.662 525.33Z" fill="white" fill-opacity="0.1"/>
<path d="M224.28 529.257C234.503 529.257 242.367 521.412 242.367 511.214C242.367 501.016 234.503 493.172 224.28 493.172C214.058 493.172 206.194 501.016 206.194 511.214C206.194 521.412 214.058 529.257 224.28 529.257Z" fill="white" fill-opacity="0.05"/>
<path d="M280.899 529.257C291.122 529.257 298.985 521.412 298.985 511.214C298.985 501.016 291.122 493.172 280.899 493.172C270.676 493.172 262.812 501.016 262.812 511.214C262.812 521.412 270.676 529.257 280.899 529.257Z" fill="white" fill-opacity="0.1"/>
<path d="M337.518 523.767C344.595 523.767 350.1 518.275 350.1 511.215C350.1 504.155 344.595 498.664 337.518 498.664C330.44 498.664 324.936 504.155 324.936 511.215C324.936 518.275 330.44 523.767 337.518 523.767Z" fill="white" fill-opacity="0.05"/>
<path d="M-2.19415 586.521C8.02866 586.521 16.6787 577.892 16.6787 567.694C16.6787 557.496 8.02866 548.867 -2.19415 548.867C-12.417 548.867 -21.067 557.496 -21.067 567.694C-21.067 577.892 -12.417 586.521 -2.19415 586.521Z" fill="white" fill-opacity="0.2"/>
<path d="M54.4247 580.243C61.502 580.243 67.0066 574.752 67.0066 567.692C67.0066 560.632 61.502 555.141 54.4247 555.141C47.3474 555.141 41.8428 560.632 41.8428 567.692C41.8428 574.752 47.3474 580.243 54.4247 580.243Z" fill="white" fill-opacity="0.1"/>
<path d="M111.043 580.243C117.992 580.243 123.625 574.624 123.625 567.692C123.625 560.76 117.992 555.141 111.043 555.141C104.095 555.141 98.4614 560.76 98.4614 567.692C98.4614 574.624 104.095 580.243 111.043 580.243Z" fill="white" fill-opacity="0.2"/>
<path d="M167.662 581.031C174.739 581.031 181.03 574.755 181.03 567.695C181.03 560.635 174.739 554.359 167.662 554.359C160.585 554.359 154.294 560.635 154.294 567.695C154.294 574.755 160.585 581.031 167.662 581.031Z" fill="white" fill-opacity="0.2"/>
<path d="M224.28 593.583C238.435 593.583 250.231 581.816 250.231 567.696C250.231 553.575 238.435 541.809 224.28 541.809C210.126 541.809 198.33 553.575 198.33 567.696C198.33 581.816 210.126 593.583 224.28 593.583Z" fill="white" fill-opacity="0.2"/>
<path d="M280.899 584.946C290.335 584.946 298.199 577.101 298.199 567.688C298.199 558.274 290.335 550.43 280.899 550.43C271.463 550.43 263.599 558.274 263.599 567.688C263.599 577.101 271.463 584.946 280.899 584.946Z" fill="white" fill-opacity="0.2"/>
<path d="M-2.19404 635.94C4.09691 635.94 9.60151 630.449 9.60151 624.173C9.60151 617.897 4.09691 612.406 -2.19404 612.406C-8.485 612.406 -13.9896 617.897 -13.9896 624.173C-13.9896 630.449 -9.27137 635.94 -2.19404 635.94Z" fill="white" fill-opacity="0.2"/>
<path d="M54.4245 635.16C59.9291 635.16 65.4336 630.453 65.4336 624.178C65.4336 617.902 60.7154 613.195 54.4245 613.195C48.1335 613.195 43.4153 617.902 43.4153 624.178C43.4153 630.453 48.1335 635.16 54.4245 635.16Z" fill="white" fill-opacity="0.2"/>
<path d="M111.043 644.565C122.052 644.565 131.489 635.152 131.489 624.169C131.489 613.187 122.052 603.773 111.043 603.773C100.034 603.773 90.5976 613.187 90.5976 624.169C90.5976 635.152 100.034 644.565 111.043 644.565Z" fill="white" fill-opacity="0.1"/>
<path d="M167.662 650.063C181.816 650.063 193.612 638.296 193.612 624.176C193.612 610.056 181.816 598.289 167.662 598.289C153.507 598.289 141.711 610.056 141.711 624.176C141.711 638.296 153.507 650.063 167.662 650.063Z" fill="white" fill-opacity="0.1"/>
<path d="M224.281 646.14C236.076 646.14 246.299 636.727 246.299 624.176C246.299 611.624 236.862 602.211 224.281 602.211C211.699 602.211 202.262 611.624 202.262 624.176C202.262 636.727 211.699 646.14 224.281 646.14Z" fill="white" fill-opacity="0.1"/>
<path d="M337.518 641.438C346.954 641.438 354.818 633.593 354.818 624.18C354.818 614.766 346.954 606.922 337.518 606.922C328.081 606.922 320.218 614.766 320.218 624.18C320.218 633.593 328.081 641.438 337.518 641.438Z" fill="white" fill-opacity="0.05"/>
<path d="M-2.19395 693.992C4.88337 693.992 11.1743 687.716 11.1743 680.656C11.1743 673.596 4.88337 667.32 -2.19395 667.32C-9.27128 667.32 -15.5622 673.596 -15.5622 680.656C-15.5622 687.716 -9.27128 693.992 -2.19395 693.992Z" fill="white" fill-opacity="0.2"/>
<path d="M54.4246 690.85C59.9292 690.85 64.6474 686.143 64.6474 681.436C64.6474 676.729 59.9292 671.238 54.4246 671.238C48.9201 671.238 44.2018 675.945 44.2018 681.436C44.2018 686.927 48.9201 690.85 54.4246 690.85Z" fill="white" fill-opacity="0.2"/>
<path d="M111.043 692.416C117.334 692.416 122.839 686.925 122.839 680.65C122.839 674.374 117.334 668.883 111.043 668.883C104.752 668.883 99.2478 674.374 99.2478 680.65C99.2478 686.925 104.752 692.416 111.043 692.416Z" fill="white" fill-opacity="0.2"/>
<path d="M167.662 692.416C173.953 692.416 179.457 686.925 179.457 680.65C179.457 674.374 173.953 668.883 167.662 668.883C161.371 668.883 155.866 674.374 155.866 680.65C155.866 686.925 161.371 692.416 167.662 692.416Z" fill="white" fill-opacity="0.1"/>
<path d="M224.28 693.204C231.358 693.204 236.862 687.713 236.862 680.653C236.862 673.593 231.358 668.102 224.28 668.102C217.203 668.102 211.698 673.593 211.698 680.653C211.698 687.713 217.203 693.204 224.28 693.204Z" fill="white" fill-opacity="0.2"/>
<path d="M280.899 697.914C290.335 697.914 298.199 690.07 298.199 680.656C298.199 671.243 290.335 663.398 280.899 663.398C271.463 663.398 263.599 671.243 263.599 680.656C263.599 690.07 271.463 697.914 280.899 697.914Z" fill="white" fill-opacity="0.2"/>
<path d="M450.755 696.343C459.405 696.343 466.482 689.283 466.482 680.654C466.482 672.025 459.405 664.965 450.755 664.965C442.105 664.965 435.027 672.025 435.027 680.654C435.027 689.283 442.105 696.343 450.755 696.343Z" fill="white" fill-opacity="0.1"/>
</svg>
