<svg width="200" height="66" viewBox="0 0 200 66" fill="none" xmlns="http://www.w3.org/2000/svg">
<rect y="38" width="200" height="28" rx="14" fill="url(#paint0_linear_42_10252)"/>
<path d="M7.632 8.168H40.512V23.24H35.904V11.432H12.048V23.24H7.632V8.168ZM13.92 13.88H33.984V16.712H13.92V13.88ZM13.92 19.208H33.888V22.184H13.92V19.208ZM2.592 24.824H45.264V28.472H2.592V24.824ZM23.904 30.968H40.512V34.52H23.904V30.968ZM9.264 31.064H20.688V34.328H9.264V31.064ZM9.264 37.016H20.688V40.28H9.264V37.016ZM29.52 34.232C30.928 37.432 33.056 40.2 35.904 42.536C38.784 44.872 42.208 46.52 46.176 47.48C45.888 47.736 45.568 48.072 45.216 48.488C44.864 48.936 44.528 49.368 44.208 49.784C43.92 50.232 43.68 50.632 43.488 50.984C39.296 49.768 35.712 47.816 32.736 45.128C29.792 42.408 27.504 39.128 25.872 35.288L29.52 34.232ZM39.504 30.968H40.32L41.088 30.824L43.872 31.928C42.848 35.224 41.392 38.12 39.504 40.616C37.648 43.08 35.472 45.16 32.976 46.856C30.512 48.552 27.856 49.912 25.008 50.936C24.752 50.392 24.384 49.768 23.904 49.064C23.424 48.36 22.976 47.8 22.56 47.384C25.12 46.616 27.536 45.496 29.808 44.024C32.08 42.552 34.048 40.776 35.712 38.696C37.408 36.616 38.672 34.264 39.504 31.64V30.968ZM2.016 44.36C3.616 44.232 5.424 44.088 7.44 43.928C9.488 43.736 11.648 43.528 13.92 43.304C16.192 43.08 18.48 42.856 20.784 42.632L20.832 46.184C17.568 46.568 14.32 46.936 11.088 47.288C7.856 47.64 4.992 47.96 2.496 48.248L2.016 44.36ZM18.336 25.976H22.704V51.032H18.336V25.976ZM6.528 26.072H10.704V45.464H6.528V26.072ZM80.544 22.52H98.064V26.744H80.544V22.52ZM54.624 11.384H75.984V15.128H54.624V11.384ZM54.096 30.44H76.08V34.328H54.096V30.44ZM53.856 22.232H76.752V26.024H53.856V22.232ZM88.704 24.344H93.12V50.792H88.704V24.344ZM57.456 16.136L61.152 15.272C61.568 16.2 61.936 17.224 62.256 18.344C62.608 19.464 62.848 20.424 62.976 21.224L59.136 22.28C59.04 21.448 58.832 20.456 58.512 19.304C58.224 18.152 57.872 17.096 57.456 16.136ZM69.408 15.176L73.584 16.04C73.072 17.384 72.544 18.744 72 20.12C71.456 21.496 70.944 22.664 70.464 23.624L66.768 22.808C67.088 22.104 67.408 21.304 67.728 20.408C68.048 19.512 68.352 18.6 68.64 17.672C68.96 16.744 69.216 15.912 69.408 15.176ZM93.648 7.16L97.2 10.52C95.632 11.128 93.872 11.688 91.92 12.2C90 12.68 88.032 13.112 86.016 13.496C84.032 13.88 82.08 14.216 80.16 14.504C80.064 14.024 79.872 13.448 79.584 12.776C79.328 12.104 79.056 11.544 78.768 11.096C80.592 10.776 82.416 10.408 84.24 9.992C86.064 9.576 87.792 9.128 89.424 8.648C91.088 8.136 92.496 7.64 93.648 7.16ZM61.728 7.256L66.24 6.104C66.784 7.096 67.312 8.2 67.824 9.416C68.368 10.6 68.768 11.624 69.024 12.488L64.32 13.832C64.096 12.936 63.728 11.88 63.216 10.664C62.736 9.416 62.24 8.28 61.728 7.256ZM78.768 11.096H83.04V27.944C83.04 29.704 82.976 31.592 82.848 33.608C82.752 35.624 82.528 37.656 82.176 39.704C81.824 41.752 81.328 43.736 80.688 45.656C80.048 47.576 79.184 49.304 78.096 50.84C77.872 50.552 77.536 50.232 77.088 49.88C76.672 49.528 76.224 49.192 75.744 48.872C75.296 48.552 74.912 48.312 74.592 48.152C75.872 46.264 76.816 44.152 77.424 41.816C78.032 39.48 78.4 37.112 78.528 34.712C78.688 32.312 78.768 30.056 78.768 27.944V11.096ZM69.552 37.64L72.576 36.008C73.376 37.16 74.144 38.424 74.88 39.8C75.616 41.144 76.176 42.312 76.56 43.304L73.44 45.176C73.056 44.184 72.48 42.968 71.712 41.528C70.976 40.088 70.256 38.792 69.552 37.64ZM58.032 36.44L61.584 37.448C61.008 39.176 60.256 40.936 59.328 42.728C58.432 44.488 57.536 45.992 56.64 47.24C56.288 46.92 55.792 46.552 55.152 46.136C54.544 45.688 54.016 45.352 53.568 45.128C54.464 43.976 55.296 42.632 56.064 41.096C56.864 39.528 57.52 37.976 58.032 36.44ZM63.456 24.296H67.872V50.792H63.456V24.296ZM121.824 20.072H142.32V24.2H121.824V20.072ZM119.712 20.072H123.936V34.088C123.936 35.848 123.856 37.784 123.696 39.896C123.568 41.976 123.28 44.008 122.832 45.992C122.384 47.976 121.68 49.752 120.72 51.32C120.496 51.064 120.16 50.76 119.712 50.408C119.296 50.088 118.848 49.768 118.368 49.448C117.92 49.128 117.536 48.888 117.216 48.728C117.984 47.352 118.544 45.832 118.896 44.168C119.28 42.472 119.504 40.76 119.568 39.032C119.664 37.272 119.712 35.608 119.712 34.04V20.072ZM124.272 37.736C125.744 37.448 127.44 37.096 129.36 36.68C131.28 36.264 133.296 35.816 135.408 35.336C137.552 34.824 139.696 34.328 141.84 33.848L142.272 37.4C139.392 38.168 136.496 38.92 133.584 39.656C130.704 40.36 128.08 41 125.712 41.576L124.272 37.736ZM125.04 29.576L126.864 26.744C128.208 27 129.616 27.352 131.088 27.8C132.56 28.248 133.968 28.728 135.312 29.24C136.656 29.72 137.76 30.2 138.624 30.68L136.752 33.848C135.888 33.368 134.784 32.856 133.44 32.312C132.128 31.768 130.736 31.256 129.264 30.776C127.792 30.264 126.384 29.864 125.04 29.576ZM142.704 7.688L147.12 9.368C146.32 11 145.456 12.632 144.528 14.264C143.6 15.864 142.736 17.256 141.936 18.44L138 16.856C138.544 16.024 139.104 15.096 139.68 14.072C140.256 13.016 140.816 11.928 141.36 10.808C141.904 9.688 142.352 8.648 142.704 7.688ZM118.464 9.704L122.304 8.024C122.944 8.888 123.6 9.848 124.272 10.904C124.944 11.96 125.536 13 126.048 14.024C126.56 15.016 126.944 15.928 127.2 16.76L123.072 18.728C122.848 17.896 122.496 16.968 122.016 15.944C121.536 14.888 120.992 13.816 120.384 12.728C119.776 11.64 119.136 10.632 118.464 9.704ZM140.928 20.072H145.344V45.8C145.344 46.952 145.2 47.864 144.912 48.536C144.656 49.208 144.112 49.736 143.28 50.12C142.512 50.472 141.488 50.68 140.208 50.744C138.928 50.808 137.376 50.84 135.552 50.84C135.488 50.264 135.312 49.544 135.024 48.68C134.768 47.848 134.48 47.144 134.16 46.568C135.408 46.6 136.592 46.632 137.712 46.664C138.832 46.664 139.584 46.664 139.968 46.664C140.608 46.632 140.928 46.328 140.928 45.752V20.072ZM130.368 6.44H134.976V22.808H130.368V6.44ZM105.936 10.328L108.624 7.16C109.552 7.672 110.56 8.248 111.648 8.888C112.768 9.496 113.84 10.104 114.864 10.712C115.888 11.32 116.736 11.864 117.408 12.344L114.624 15.992C114.016 15.48 113.2 14.904 112.176 14.264C111.184 13.592 110.128 12.92 109.008 12.248C107.92 11.544 106.896 10.904 105.936 10.328ZM103.248 23.576L105.744 20.264C106.672 20.68 107.696 21.192 108.816 21.8C109.936 22.376 111.024 22.952 112.08 23.528C113.168 24.072 114.048 24.584 114.72 25.064L112.176 28.808C111.536 28.328 110.688 27.784 109.632 27.176C108.608 26.568 107.536 25.944 106.416 25.304C105.296 24.664 104.24 24.088 103.248 23.576ZM104.88 47.384C105.744 46.168 106.704 44.712 107.76 43.016C108.848 41.32 109.936 39.528 111.024 37.64C112.112 35.72 113.12 33.848 114.048 32.024L117.36 35.048C116.528 36.712 115.616 38.456 114.624 40.28C113.664 42.072 112.672 43.832 111.648 45.56C110.656 47.288 109.68 48.92 108.72 50.456L104.88 47.384ZM165.072 20.84V24.008H185.952V20.84H165.072ZM165.072 27.32V30.536H185.952V27.32H165.072ZM165.072 14.408V17.48H185.952V14.408H165.072ZM160.704 10.856H190.56V34.04H160.704V10.856ZM173.424 5.96L178.848 6.776C178.336 7.832 177.792 8.856 177.216 9.848C176.672 10.84 176.176 11.704 175.728 12.44L171.6 11.576C171.952 10.712 172.304 9.768 172.656 8.744C173.008 7.72 173.264 6.792 173.424 5.96ZM164.064 37.208H168.624V44.456C168.624 45.128 168.832 45.56 169.248 45.752C169.696 45.944 170.64 46.04 172.08 46.04C172.368 46.04 172.816 46.04 173.424 46.04C174.032 46.04 174.736 46.04 175.536 46.04C176.336 46.04 177.12 46.04 177.888 46.04C178.688 46.04 179.424 46.04 180.096 46.04C180.768 46.04 181.296 46.04 181.68 46.04C182.512 46.04 183.12 45.928 183.504 45.704C183.92 45.448 184.208 44.936 184.368 44.168C184.528 43.368 184.656 42.184 184.752 40.616C185.072 40.872 185.472 41.112 185.952 41.336C186.464 41.56 186.992 41.752 187.536 41.912C188.08 42.072 188.544 42.184 188.928 42.248C188.768 44.392 188.448 46.04 187.968 47.192C187.52 48.344 186.816 49.128 185.856 49.544C184.928 49.992 183.632 50.216 181.968 50.216C181.712 50.216 181.232 50.216 180.528 50.216C179.856 50.216 179.072 50.216 178.176 50.216C177.312 50.216 176.432 50.216 175.536 50.216C174.64 50.216 173.84 50.216 173.136 50.216C172.464 50.216 172 50.216 171.744 50.216C169.728 50.216 168.16 50.04 167.04 49.688C165.92 49.368 165.136 48.792 164.688 47.96C164.272 47.128 164.064 45.976 164.064 44.504V37.208ZM171.696 35.528L175.152 33.56C175.952 34.264 176.768 35.048 177.6 35.912C178.432 36.776 179.184 37.656 179.856 38.552C180.56 39.416 181.12 40.2 181.536 40.904L177.792 43.16C177.44 42.424 176.928 41.608 176.256 40.712C175.584 39.816 174.848 38.92 174.048 38.024C173.248 37.096 172.464 36.264 171.696 35.528ZM187.872 37.688L191.904 36.008C192.64 37 193.376 38.088 194.112 39.272C194.848 40.456 195.488 41.624 196.032 42.776C196.608 43.896 197.04 44.936 197.328 45.896L193.056 47.768C192.8 46.84 192.4 45.8 191.856 44.648C191.312 43.464 190.688 42.264 189.984 41.048C189.312 39.832 188.608 38.712 187.872 37.688ZM158.304 36.824L162.288 38.504C161.904 39.528 161.456 40.664 160.944 41.912C160.432 43.16 159.904 44.376 159.36 45.56C158.816 46.744 158.272 47.8 157.728 48.728L153.552 46.76C154.16 45.832 154.752 44.808 155.328 43.688C155.904 42.536 156.448 41.368 156.96 40.184C157.504 38.968 157.952 37.848 158.304 36.824Z" fill="#252F38"/>
<defs>
<linearGradient id="paint0_linear_42_10252" x1="0" y1="52" x2="200" y2="52" gradientUnits="userSpaceOnUse">
<stop stop-color="#FFC76C"/>
<stop offset="1" stop-color="#FFC76C" stop-opacity="0"/>
</linearGradient>
</defs>
</svg>
