<svg width="200" height="66" viewBox="0 0 200 66" fill="none" xmlns="http://www.w3.org/2000/svg">
<rect y="38" width="200" height="28" rx="14" fill="url(#paint0_linear_126_876)"/>
<path d="M2.352 45.944H45.744V49.592H2.352V45.944ZM2.64 14.984H45.408V18.632H2.64V14.984ZM5.952 38.984H42.624V42.488H5.952V38.984ZM21.504 10.52H26.064V47.72H21.504V10.52ZM38.64 6.632L40.896 10.184C38.656 10.568 36.176 10.904 33.456 11.192C30.736 11.48 27.888 11.736 24.912 11.96C21.936 12.152 18.928 12.312 15.888 12.44C12.88 12.536 9.984 12.616 7.2 12.68C7.168 12.136 7.04 11.528 6.816 10.856C6.624 10.152 6.432 9.576 6.24 9.128C9.056 9.032 11.952 8.92 14.928 8.792C17.904 8.664 20.832 8.504 23.712 8.312C26.592 8.088 29.312 7.848 31.872 7.592C34.432 7.304 36.688 6.984 38.64 6.632ZM11.904 30.008V33.032H36.24V30.008H11.904ZM11.904 24.2V27.176H36.24V24.2H11.904ZM7.488 21.08H40.848V36.152H7.488V21.08ZM52.32 33.848H95.568V37.64H52.32V33.848ZM53.04 8.408H94.656V12.392H53.04V8.408ZM83.904 31.064L88.32 32.264C87.2 35.528 85.68 38.28 83.76 40.52C81.872 42.76 79.536 44.6 76.752 46.04C74 47.48 70.736 48.584 66.96 49.352C63.184 50.12 58.848 50.696 53.952 51.08C53.792 50.44 53.552 49.752 53.232 49.016C52.912 48.28 52.56 47.656 52.176 47.144C56.816 46.888 60.896 46.44 64.416 45.8C67.936 45.16 70.976 44.232 73.536 43.016C76.096 41.8 78.208 40.232 79.872 38.312C81.568 36.36 82.912 33.944 83.904 31.064ZM58.08 42.872L61.584 39.944C64.688 40.424 67.792 40.984 70.896 41.624C74 42.264 77.008 42.92 79.92 43.592C82.832 44.264 85.552 44.952 88.08 45.656C90.64 46.36 92.912 47.048 94.896 47.72L90.768 50.936C88.368 50.008 85.44 49.064 81.984 48.104C78.56 47.176 74.816 46.264 70.752 45.368C66.688 44.44 62.464 43.608 58.08 42.872ZM65.952 9.896H70.272V26.552H65.952V9.896ZM77.04 9.896H81.312V26.552H77.04V9.896ZM59.616 19.496V25.16H88.368V19.496H59.616ZM55.392 15.848H92.88V28.76H55.392V15.848ZM58.08 42.872C59.136 41.688 60.24 40.312 61.392 38.744C62.544 37.176 63.648 35.544 64.704 33.848C65.76 32.152 66.64 30.536 67.344 29L71.856 30.056C71.152 31.56 70.288 33.112 69.264 34.712C68.272 36.28 67.248 37.784 66.192 39.224C65.168 40.632 64.224 41.864 63.36 42.92L58.08 42.872ZM120.24 21.464H144.528V25.448H120.24V21.464ZM118.368 11.96H145.968V15.992H118.368V11.96ZM118.512 30.104H145.776V34.088H118.512V30.104ZM129.936 6.44H134.4V23.768H129.936V6.44ZM136.176 24.824H140.592V45.992C140.592 47.144 140.432 48.056 140.112 48.728C139.824 49.4 139.264 49.896 138.432 50.216C137.6 50.568 136.544 50.776 135.264 50.84C133.984 50.936 132.4 50.984 130.512 50.984C130.416 50.376 130.224 49.656 129.936 48.824C129.648 48.024 129.344 47.32 129.024 46.712C130.4 46.744 131.664 46.776 132.816 46.808C134 46.808 134.784 46.808 135.168 46.808C135.552 46.776 135.808 46.712 135.936 46.616C136.096 46.488 136.176 46.248 136.176 45.896V24.824ZM121.008 37.4L124.8 35.336C125.504 36.104 126.24 36.984 127.008 37.976C127.808 38.936 128.544 39.88 129.216 40.808C129.888 41.736 130.432 42.568 130.848 43.304L126.864 45.704C126.48 44.968 125.968 44.12 125.328 43.16C124.688 42.2 123.984 41.224 123.216 40.232C122.48 39.208 121.744 38.264 121.008 37.4ZM105.36 9.512H117.504V41.624H105.36V37.544H113.28V13.64H105.36V9.512ZM105.6 23.336H115.296V27.368H105.6V23.336ZM103.2 9.512H107.424V45.752H103.2V9.512ZM180 29.24H184.512V48.584H180V29.24ZM168.48 45.896H195.744V49.928H168.48V45.896ZM170.976 36.44H193.776V40.328H170.976V36.44ZM175.632 12.632V20.744H188.976V12.632H175.632ZM171.408 8.744H193.392V24.632H171.408V8.744ZM191.472 25.88L194.304 29.288C192.256 29.832 189.904 30.296 187.248 30.68C184.592 31.032 181.856 31.336 179.04 31.592C176.224 31.848 173.536 32.024 170.976 32.12C170.912 31.64 170.768 31.064 170.544 30.392C170.352 29.688 170.128 29.096 169.872 28.616C171.76 28.52 173.696 28.392 175.68 28.232C177.696 28.04 179.664 27.832 181.584 27.608C183.536 27.384 185.344 27.128 187.008 26.84C188.704 26.552 190.192 26.232 191.472 25.88ZM159.36 10.664H163.776V50.984H159.36V10.664ZM151.92 19.976H169.44V24.248H151.92V19.976ZM159.6 21.656L162.336 22.856C161.856 24.552 161.28 26.328 160.608 28.184C159.936 30.008 159.2 31.816 158.4 33.608C157.632 35.4 156.8 37.08 155.904 38.648C155.008 40.216 154.096 41.56 153.168 42.68C152.944 42.04 152.608 41.32 152.16 40.52C151.712 39.688 151.312 39 150.96 38.456C151.824 37.496 152.672 36.36 153.504 35.048C154.336 33.704 155.136 32.28 155.904 30.776C156.704 29.24 157.408 27.688 158.016 26.12C158.656 24.552 159.184 23.064 159.6 21.656ZM166.848 7.064L169.968 10.568C168.4 11.176 166.64 11.736 164.688 12.248C162.768 12.76 160.784 13.208 158.736 13.592C156.72 13.944 154.752 14.248 152.832 14.504C152.736 14.024 152.544 13.448 152.256 12.776C152 12.072 151.76 11.48 151.536 11C153.36 10.712 155.216 10.376 157.104 9.992C158.992 9.576 160.784 9.128 162.48 8.648C164.208 8.136 165.664 7.608 166.848 7.064ZM163.68 26.408C163.968 26.632 164.416 27.064 165.024 27.704C165.632 28.312 166.288 28.968 166.992 29.672C167.728 30.376 168.384 31.048 168.96 31.688C169.536 32.296 169.936 32.744 170.16 33.032L167.52 36.584C167.232 36.072 166.832 35.432 166.32 34.664C165.84 33.896 165.296 33.112 164.688 32.312C164.112 31.48 163.552 30.696 163.008 29.96C162.464 29.224 162 28.632 161.616 28.184L163.68 26.408Z" fill="#252F38"/>
<defs>
<linearGradient id="paint0_linear_126_876" x1="0" y1="52" x2="200" y2="52" gradientUnits="userSpaceOnUse">
<stop stop-color="#FFC76C"/>
<stop offset="1" stop-color="#FFC76C" stop-opacity="0"/>
</linearGradient>
</defs>
</svg>
