<svg width="264" height="80" viewBox="0 0 264 80" fill="none" xmlns="http://www.w3.org/2000/svg">
<rect width="264" height="80" rx="40" fill="#0DC7AB"/>
<path d="M38.28 43.94V45.38H45.56V43.94H38.28ZM38.28 41.28V42.68H45.56V41.28H38.28ZM36.42 39.96H47.52V46.7H36.42V39.96ZM33.1 34.02H50.92V35.68H33.1V34.02ZM41 31.62H42.88V40.48H41V31.62ZM40.12 34.52L41.7 35.14C41.26 35.7933 40.7467 36.4267 40.16 37.04C39.5867 37.6533 38.96 38.2267 38.28 38.76C37.6 39.2933 36.8933 39.7733 36.16 40.2C35.4267 40.6267 34.6867 40.9867 33.94 41.28C33.8467 41.1333 33.7267 40.9667 33.58 40.78C33.4333 40.5933 33.2867 40.4133 33.14 40.24C32.9933 40.0533 32.8467 39.9 32.7 39.78C33.42 39.54 34.14 39.2333 34.86 38.86C35.58 38.4867 36.2667 38.0733 36.92 37.62C37.5867 37.1533 38.1867 36.66 38.72 36.14C39.2667 35.62 39.7333 35.08 40.12 34.52ZM33.36 47.9H50.7V49.58H33.36V47.9ZM42.14 35.68L43.28 34.52C43.8933 34.8933 44.5533 35.3067 45.26 35.76C45.9667 36.2 46.6667 36.66 47.36 37.14C48.0533 37.6067 48.7 38.0667 49.3 38.52C49.9 38.96 50.4133 39.3667 50.84 39.74L49.6 41.12C49.2 40.76 48.7067 40.3467 48.12 39.88C47.5467 39.4133 46.9133 38.9333 46.22 38.44C45.54 37.9467 44.8467 37.4667 44.14 37C43.4467 36.52 42.78 36.08 42.14 35.68ZM57.94 40.5H69.72V50.24H67.84V41.96H59.76V50.24H57.94V40.5ZM53.94 37.8H71.66V39.34H53.94V37.8ZM55.36 35.14H70.54V36.6H55.36V35.14ZM59.16 43.1H68.6V44.34H59.16V43.1ZM59.16 45.52H68.6V46.76H59.16V45.52ZM58.98 48H68.62V49.46H58.98V48ZM69.24 31.74L70.4 33.1C69.4267 33.2733 68.3333 33.4267 67.12 33.56C65.92 33.68 64.66 33.78 63.34 33.86C62.02 33.9267 60.6867 33.98 59.34 34.02C58.0067 34.06 56.72 34.08 55.48 34.08C55.4667 33.8667 55.42 33.62 55.34 33.34C55.2733 33.06 55.2 32.8267 55.12 32.64C56.3333 32.6267 57.5933 32.6067 58.9 32.58C60.22 32.54 61.5133 32.4867 62.78 32.42C64.06 32.34 65.2533 32.2467 66.36 32.14C67.4667 32.02 68.4267 31.8867 69.24 31.74ZM60.9 33.24L62.86 33.64C62.42 35.2667 61.84 36.8467 61.12 38.38C60.4 39.9133 59.5067 41.32 58.44 42.6C57.3733 43.88 56.08 44.9667 54.56 45.86C54.48 45.7133 54.3667 45.5467 54.22 45.36C54.0867 45.1733 53.94 44.9933 53.78 44.82C53.6333 44.6333 53.5 44.48 53.38 44.36C54.7933 43.5733 55.9933 42.5933 56.98 41.42C57.98 40.2333 58.8 38.94 59.44 37.54C60.08 36.1267 60.5667 34.6933 60.9 33.24ZM74.86 32.62H92.36V34.32H74.86V32.62ZM82.76 33.34H84.74V41.24C84.74 42.0267 84.6667 42.7867 84.52 43.52C84.3867 44.2533 84.1333 44.9533 83.76 45.62C83.4 46.2867 82.88 46.9067 82.2 47.48C81.52 48.0533 80.64 48.5667 79.56 49.02C78.48 49.4733 77.1667 49.8667 75.62 50.2C75.54 50.0533 75.4333 49.8733 75.3 49.66C75.18 49.46 75.0467 49.2533 74.9 49.04C74.7533 48.84 74.6067 48.6667 74.46 48.52C75.9667 48.2667 77.22 47.9533 78.22 47.58C79.2333 47.2067 80.04 46.7933 80.64 46.34C81.24 45.8733 81.6933 45.3667 82 44.82C82.3067 44.2733 82.5067 43.7 82.6 43.1C82.7067 42.5 82.76 41.8733 82.76 41.22V33.34ZM78.44 40.48V42.2H89.22V40.48H78.44ZM78.44 37.34V39.02H89.22V37.34H78.44ZM76.64 35.78H91.1V43.76H76.64V35.78ZM78.76 43.8C79.4267 44.7467 80.2133 45.5067 81.12 46.08C82.04 46.6533 83.0867 47.0867 84.26 47.38C85.4467 47.6733 86.7733 47.88 88.24 48C89.7067 48.1067 91.32 48.1733 93.08 48.2C92.92 48.4133 92.76 48.6933 92.6 49.04C92.44 49.4 92.3333 49.74 92.28 50.06C90.48 49.9933 88.8067 49.8733 87.26 49.7C85.7267 49.54 84.3267 49.2667 83.06 48.88C81.8067 48.4933 80.68 47.9467 79.68 47.24C78.6933 46.52 77.8467 45.5933 77.14 44.46L78.76 43.8ZM99.34 36.28L100.6 35.2C101.067 35.4 101.547 35.6467 102.04 35.94C102.547 36.22 103.02 36.5067 103.46 36.8C103.913 37.0933 104.28 37.3733 104.56 37.64L103.22 38.84C102.953 38.5733 102.6 38.2867 102.16 37.98C101.733 37.6733 101.273 37.3733 100.78 37.08C100.287 36.7733 99.8067 36.5067 99.34 36.28ZM108.48 33.22H108.84L109.16 33.14L110.38 33.86C109.74 35.0467 108.913 36.1133 107.9 37.06C106.9 37.9933 105.773 38.8133 104.52 39.52C103.28 40.2133 101.973 40.8067 100.6 41.3C99.2267 41.7933 97.8533 42.1867 96.48 42.48C96.3867 42.24 96.2533 41.96 96.08 41.64C95.92 41.3067 95.76 41.04 95.6 40.84C96.8933 40.6133 98.1867 40.2867 99.48 39.86C100.787 39.4333 102.027 38.9067 103.2 38.28C104.373 37.6533 105.413 36.9467 106.32 36.16C107.24 35.36 107.96 34.4733 108.48 33.5V33.22ZM101.94 33.22H108.92V34.8H101.94V33.22ZM103.28 31.56L105.36 32.02C104.4 33.1267 103.233 34.16 101.86 35.12C100.5 36.0667 98.8867 36.9133 97.02 37.66C96.94 37.5 96.8267 37.3333 96.68 37.16C96.5333 36.9733 96.3733 36.8 96.2 36.64C96.04 36.48 95.8867 36.3467 95.74 36.24C96.94 35.84 98.02 35.3867 98.98 34.88C99.94 34.36 100.78 33.82 101.5 33.26C102.22 32.6867 102.813 32.12 103.28 31.56ZM101.96 43.72L103.34 42.64C103.82 42.88 104.32 43.1667 104.84 43.5C105.36 43.82 105.847 44.1467 106.3 44.48C106.767 44.8133 107.147 45.1267 107.44 45.42L105.96 46.62C105.693 46.3267 105.333 46.0067 104.88 45.66C104.44 45.3133 103.96 44.9733 103.44 44.64C102.933 44.2933 102.44 43.9867 101.96 43.72ZM111.22 40.34H111.6L111.94 40.26L113.2 40.92C112.573 42.4 111.747 43.6733 110.72 44.74C109.693 45.8067 108.507 46.7067 107.16 47.44C105.827 48.16 104.38 48.74 102.82 49.18C101.273 49.6333 99.66 49.98 97.98 50.22C97.9133 49.9533 97.8 49.6533 97.64 49.32C97.48 48.9867 97.32 48.7133 97.16 48.5C98.7333 48.3133 100.253 48.0333 101.72 47.66C103.187 47.2733 104.54 46.7667 105.78 46.14C107.033 45.5133 108.127 44.7467 109.06 43.84C109.993 42.92 110.713 41.8467 111.22 40.62V40.34ZM105 40.34H111.72V41.94H105V40.34ZM106.52 38.44L108.6 38.92C107.547 40.16 106.227 41.3067 104.64 42.36C103.053 43.4133 101.16 44.3333 98.96 45.12C98.88 44.9733 98.7733 44.8067 98.64 44.62C98.5067 44.4333 98.3667 44.2533 98.22 44.08C98.0733 43.9067 97.9333 43.7667 97.8 43.66C99.2 43.22 100.46 42.72 101.58 42.16C102.7 41.6 103.673 41 104.5 40.36C105.327 39.72 106 39.08 106.52 38.44Z" fill="white"/>
<g clip-path="url(#clip0_42_4841)">
<path d="M215.713 48.0678L215.713 28.6211L216.713 28.6211L216.713 48.0678L216.713 49.2749L217.567 48.4213L224.52 41.4682L225.226 42.1744L216.566 50.8342L216.213 51.1873L215.594 50.5675L215.593 50.5673L207.189 42.1758L207.905 41.4665L214.86 48.4213L215.713 49.2749L215.713 48.0678Z" fill="white" stroke="white"/>
</g>
<defs>
<clipPath id="clip0_42_4841">
<rect width="32" height="32" fill="white" transform="translate(200 24)"/>
</clipPath>
</defs>
</svg>
