<svg width="264" height="80" viewBox="0 0 264 80" fill="none" xmlns="http://www.w3.org/2000/svg">
<rect width="264" height="80" rx="40" fill="#0DC7AB"/>
<path d="M45.88 44.68H38.22V45.78H45.88V44.68ZM38.22 48.18H45.88V47.06H38.22V48.18ZM36.38 50.06V43.4H47.78V49.98H45.88V49.44H38.22V50.06H36.38ZM35.66 37.4H48.68C47.6 37.02 46.5 36.54 45.48 35.98V36.56H38.56V36.08C37.64 36.6 36.66 37.02 35.66 37.4ZM47.12 41.38V38.62H42.68V41.38H44.92L43.68 41C44.04 40.36 44.46 39.34 44.68 38.66L46.24 39.1C45.8 39.96 45.36 40.8 45 41.38H47.12ZM37.8 39.14L39.1 38.74C39.54 39.42 39.98 40.34 40.12 40.94L38.8 41.38H41.16V38.62H36.82V41.38H38.74C38.6 40.76 38.22 39.84 37.8 39.14ZM39.92 35.28H44.32C43.48 34.76 42.74 34.2 42.12 33.6C41.46 34.2 40.72 34.78 39.92 35.28ZM41.74 31.62L43.4 32.18C43.3 32.3 43.2 32.44 43.08 32.56C44.94 34.28 48.32 35.78 51.44 36.46C51.06 36.8 50.54 37.46 50.26 37.9C49.78 37.76 49.26 37.6 48.76 37.42V42.6H35.24V37.56C34.74 37.74 34.26 37.9 33.76 38.04C33.6 37.68 33.08 36.92 32.76 36.6C36.38 35.68 39.92 33.96 41.74 31.62ZM71.8 38.3V39.7H60.04V38.3H65.04V37.2H61.36V35.98H65.04V34.92H60.72V33.6H63.04C62.8 33.14 62.48 32.62 62.14 32.18L63.48 31.7C63.94 32.26 64.48 33.08 64.66 33.6H67.4C67.78 33.06 68.22 32.24 68.42 31.7L70.08 32.14C69.72 32.68 69.36 33.16 69.04 33.6H71.38V34.92H66.82V35.98H70.82V37.2H66.82V38.3H71.8ZM68.48 40.88L69.56 40.1C70.34 40.6 71.24 41.38 71.68 41.96L70.54 42.82C70.14 42.24 69.26 41.44 68.48 40.88ZM57.9 34.46L56.5 35.02C56.34 34.32 55.92 33.16 55.48 32.32L56.84 31.82C57.28 32.64 57.74 33.74 57.9 34.46ZM59.96 35.06V36.56H53.66V35.06H59.96ZM58.08 44.58H55.64V47.5H58.08V44.58ZM59.46 43.12V48.96H55.64V49.84H54.28V43.12H59.46ZM54.34 41.86V40.4H59.5V41.86H54.34ZM54.34 39.2V37.74H59.5V39.2H54.34ZM69.7 44.66L71.04 45.3C70.52 46.14 69.86 46.9 69.1 47.58C69.46 48.34 69.92 48.74 70.4 48.74C70.72 48.74 70.9 48.28 70.98 47.06C71.32 47.36 71.76 47.58 72.12 47.74C71.86 49.58 71.34 50.18 70.24 50.2C69.22 50.2 68.46 49.62 67.86 48.56C67.12 49.08 66.34 49.5 65.56 49.84C65.36 49.58 64.96 49.12 64.66 48.86C65.58 48.46 66.5 47.96 67.32 47.32C67.06 46.48 66.84 45.48 66.68 44.32H64.3V45.4C64.92 45.32 65.56 45.24 66.2 45.16L66.24 46.5L64.3 46.76V48.48C64.3 49.28 64.14 49.64 63.6 49.86C63.06 50.08 62.24 50.1 61.1 50.1C61.02 49.7 60.8 49.12 60.6 48.72C61.38 48.76 62.16 48.76 62.36 48.74C62.6 48.72 62.68 48.66 62.68 48.44V47C61.76 47.12 60.9 47.24 60.12 47.34L59.92 45.88C60.7 45.8 61.64 45.68 62.68 45.58V44.32H60.02V42.92H62.68V41.78C62 41.88 61.3 41.96 60.66 42C60.6 41.68 60.42 41.2 60.24 40.86C61.98 40.68 63.98 40.38 65.14 39.98L66.16 41.08C65.62 41.26 64.96 41.4 64.3 41.54V42.92H66.54C66.46 42.06 66.4 41.14 66.38 40.16H67.96C67.96 41.16 68 42.08 68.08 42.92H71.8V44.32H68.2C68.3 45.02 68.42 45.66 68.58 46.2C69.02 45.72 69.4 45.2 69.7 44.66ZM92.6 38.3V39.7H80.84V38.3H85.84V37.2H82.16V35.98H85.84V34.92H81.52V33.6H83.84C83.6 33.14 83.28 32.62 82.94 32.18L84.28 31.7C84.74 32.26 85.28 33.08 85.46 33.6H88.2C88.58 33.06 89.02 32.24 89.22 31.7L90.88 32.14C90.52 32.68 90.16 33.16 89.84 33.6H92.18V34.92H87.62V35.98H91.62V37.2H87.62V38.3H92.6ZM89.28 40.88L90.36 40.1C91.14 40.6 92.04 41.38 92.48 41.96L91.34 42.82C90.94 42.24 90.06 41.44 89.28 40.88ZM78.7 34.46L77.3 35.02C77.14 34.32 76.72 33.16 76.28 32.32L77.64 31.82C78.08 32.64 78.54 33.74 78.7 34.46ZM80.76 35.06V36.56H74.46V35.06H80.76ZM78.88 44.58H76.44V47.5H78.88V44.58ZM80.26 43.12V48.96H76.44V49.84H75.08V43.12H80.26ZM75.14 41.86V40.4H80.3V41.86H75.14ZM75.14 39.2V37.74H80.3V39.2H75.14ZM90.5 44.66L91.84 45.3C91.32 46.14 90.66 46.9 89.9 47.58C90.26 48.34 90.72 48.74 91.2 48.74C91.52 48.74 91.7 48.28 91.78 47.06C92.12 47.36 92.56 47.58 92.92 47.74C92.66 49.58 92.14 50.18 91.04 50.2C90.02 50.2 89.26 49.62 88.66 48.56C87.92 49.08 87.14 49.5 86.36 49.84C86.16 49.58 85.76 49.12 85.46 48.86C86.38 48.46 87.3 47.96 88.12 47.32C87.86 46.48 87.64 45.48 87.48 44.32H85.1V45.4C85.72 45.32 86.36 45.24 87 45.16L87.04 46.5L85.1 46.76V48.48C85.1 49.28 84.94 49.64 84.4 49.86C83.86 50.08 83.04 50.1 81.9 50.1C81.82 49.7 81.6 49.12 81.4 48.72C82.18 48.76 82.96 48.76 83.16 48.74C83.4 48.72 83.48 48.66 83.48 48.44V47C82.56 47.12 81.7 47.24 80.92 47.34L80.72 45.88C81.5 45.8 82.44 45.68 83.48 45.58V44.32H80.82V42.92H83.48V41.78C82.8 41.88 82.1 41.96 81.46 42C81.4 41.68 81.22 41.2 81.04 40.86C82.78 40.68 84.78 40.38 85.94 39.98L86.96 41.08C86.42 41.26 85.76 41.4 85.1 41.54V42.92H87.34C87.26 42.06 87.2 41.14 87.18 40.16H88.76C88.76 41.16 88.8 42.08 88.88 42.92H92.6V44.32H89C89.1 45.02 89.22 45.66 89.38 46.2C89.82 45.72 90.2 45.2 90.5 44.66ZM110.68 37.6V34.24H105.16V37.6H110.68ZM112.48 32.66V39.18H103.44V32.66H112.48ZM102.92 42.66L101.84 44.12C101.54 43.56 100.88 42.62 100.28 41.8V50.04H98.48V41.96C97.74 43.78 96.82 45.5 95.92 46.62C95.74 46.1 95.3 45.34 95.02 44.9C96.2 43.54 97.48 41.16 98.24 39.04H95.4V37.28H98.48V34.58C97.56 34.76 96.64 34.9 95.78 35.02C95.7 34.62 95.44 33.98 95.24 33.58C97.48 33.22 100.04 32.64 101.56 31.98L102.84 33.4C102.08 33.7 101.2 33.96 100.28 34.18V37.28H102.62V39.04H100.28V39.96C100.86 40.46 102.56 42.2 102.92 42.66ZM108.82 47.96H113.46V49.62H102.2V47.96H106.98V45.66H103.26V44.06H106.98V42.02C105.7 42.14 104.42 42.22 103.24 42.26C103.2 41.88 102.98 41.24 102.8 40.86C105.9 40.66 109.6 40.28 111.72 39.72L112.86 41.1C111.72 41.4 110.3 41.64 108.82 41.82V44.06H112.64V45.66H108.82V47.96Z" fill="white"/>
<g clip-path="url(#clip0_1_1524)">
<path d="M218.375 49.0241L217.666 48.3081L224.62 41.3533L225.474 40.4998H224.267H204.82V39.4998H224.267H225.474L224.62 38.6462L217.667 31.6931L218.373 30.9869L227.033 39.6467L227.386 39.9998L226.767 40.6196L226.766 40.6198L218.375 49.0241Z" fill="white" stroke="white"/>
</g>
<defs>
<clipPath id="clip0_1_1524">
<rect width="32" height="32" fill="white" transform="translate(200 24)"/>
</clipPath>
</defs>
</svg>
